<svg width="643" height="357" viewBox="0 0 643 357" fill="none" xmlns="http://www.w3.org/2000/svg">
<path d="M3.63483 266.918C20.2889 278.665 36.9407 290.41 53.5948 302.158C113.774 293.302 173.951 284.448 234.13 275.592C234.125 219.348 234.119 163.103 234.114 106.858C164.026 92.4163 93.9329 77.9744 23.8445 63.5325C14.684 76.4266 9.79163 90.3042 6.87383 104.554C5.79265 158.677 4.71373 212.796 3.63483 266.918Z" fill="url(#paint0_linear)"/>
<path d="M234.128 275.592C323.222 281.845 412.315 288.099 501.41 294.351C499.329 230.955 497.246 167.56 495.165 104.164C408.115 105.068 321.065 105.97 234.015 106.874C234.053 163.114 234.092 219.354 234.128 275.592Z" fill="url(#paint1_linear)"/>
<path d="M-6.10352e-05 311.374C78.3079 299.085 156.616 286.796 234.922 274.507V106.657C158.43 90.4652 81.9404 74.2716 5.44878 58.0803C3.63477 142.513 1.81847 226.944 -6.10352e-05 311.374Z" fill="url(#paint2_linear)"/>
<path d="M495.735 296.411L234.13 275.593C156.087 287.519 78.0455 299.448 0.00219727 311.374C142.122 315.494 284.241 319.614 426.359 323.736L495.735 296.411Z" fill="url(#paint3_linear)"/>
<path d="M5.4509 58.0826C81.6508 74.3623 157.851 90.642 234.048 106.922C298.758 106.219 363.465 105.517 428.175 104.814C428.25 99.5364 428.326 94.261 428.401 88.9832C397.176 89.416 365.951 89.8511 334.728 90.2839C304.483 91.1904 274.237 92.0968 243.994 93.001L40.2745 45.696C34.025 48.4652 27.1422 51.2027 19.6441 53.743C14.7381 55.4063 9.995 56.8408 5.4509 58.0826Z" fill="#008DE0"/>
<path d="M40.2746 45.6982L243.994 93.0032C307.281 92.0605 370.568 91.12 433.852 90.1773C434.61 88.8041 435.365 87.4308 436.123 86.0575C386.095 87.3855 336.097 87.4943 286.132 86.3839C270.424 86.0349 254.715 85.5658 239.011 84.9743C175.701 69.6487 112.39 54.323 49.08 38.9951C46.1938 38.5985 43.3077 38.2019 40.4216 37.8076C40.2451 38.952 40.1366 44.5266 40.2746 45.6982Z" fill="#0279B5"/>
<path d="M40.4216 37.8055C107.357 54.0512 174.294 70.297 241.23 86.5404C241.23 86.5404 241.243 81.7362 239.558 80.0752C172.838 61.756 106.12 43.4368 39.3992 25.1199C39.6661 27.3112 39.8991 29.5886 40.0801 31.9499C40.2361 33.9577 40.3492 35.9111 40.4216 37.8055Z" fill="#BDF0F9"/>
<path d="M239.011 85.9489C303.617 86.4905 368.224 87.0321 432.83 87.576V80.0933H239.011C239.011 82.0444 239.011 83.9955 239.011 85.9489Z" fill="url(#paint4_linear)"/>
<path d="M39.4014 25.1198C106.122 43.439 172.84 61.7582 239.56 80.0751C242.736 79.0644 246.002 77.9518 249.345 76.7326C254.33 74.9107 259.026 73.0162 263.425 71.0945C203.966 54.3956 144.508 37.6989 85.0481 21C69.8303 22.371 54.6147 23.7443 39.4014 25.1198Z" fill="#008DE0"/>
<path d="M263.423 71.0923C325.758 73.1522 388.095 75.2121 450.429 77.272C444.562 78.2124 438.697 79.1506 432.83 80.091C368.224 80.091 303.616 80.091 239.011 80.091C247.149 77.0929 255.285 74.0926 263.423 71.0923Z" fill="#0279B5"/>
<path d="M643 320.55C589.407 315.431 535.813 310.314 482.22 305.197C460.599 311.784 438.98 318.37 417.359 324.957C467.267 335.637 517.175 346.32 567.085 357C592.389 344.849 617.694 332.7 643 320.55Z" fill="url(#paint5_linear)"/>
<path d="M505.612 95.4892C506.445 162.679 507.277 229.869 508.109 297.061C480.858 305.954 453.608 314.844 426.359 323.736C427.381 238.329 428.404 152.921 429.424 67.5164C454.82 76.8391 480.216 86.1641 505.612 95.4892ZM501.41 294.351C501.371 235.945 501.335 177.536 501.297 119.129C480.555 113.022 459.816 106.913 439.075 100.805C439.075 171.9 439.075 242.994 439.075 314.087C459.855 307.506 480.632 300.93 501.41 294.351Z" fill="url(#paint6_linear)"/>
<path d="M439.07 95.2739V314.096L501.401 294.301C501.378 234.05 501.355 173.801 501.333 113.552C480.576 107.457 459.823 101.365 439.07 95.2739Z" fill="#39A1F9"/>
<path d="M493.93 121.345V184.701L447.236 182.023V107.944L493.93 121.345Z" fill="#008DE0"/>
<path d="M450.807 114.767V177.393L491.123 180.072V125.001L450.807 114.767Z" fill="#39A1F9"/>
<path d="M493.93 193.718V217.598L447.236 220.034V192.499L493.93 193.718Z" fill="#008DE0"/>
<path d="M450.807 197.618V214.675L491.123 213.456V197.618H450.807Z" fill="#39A1F9"/>
<path d="M493.93 226.615V288.265L447.236 302.154V231.245L493.93 226.615Z" fill="#008DE0"/>
<path d="M450.807 235.142V295.088C450.807 295.088 491.125 285.584 491.125 284.854C491.125 284.122 491.125 231.49 491.125 231.49L450.807 235.142Z" fill="#39A1F9"/>
<path d="M442.642 205.171C441.514 205.171 440.599 203.916 440.599 202.368C440.599 200.82 441.514 199.565 442.642 199.565C443.77 199.565 444.684 200.82 444.684 202.368C444.684 203.916 443.77 205.171 442.642 205.171Z" fill="#0056A8"/>
<path d="M443.343 202.368H454.953C455.34 202.368 455.655 202.067 455.655 201.697C455.655 201.328 455.338 201.026 454.953 201.026H443.343C442.956 201.026 442.642 201.328 442.642 201.697C442.642 202.067 442.959 202.368 443.343 202.368Z" fill="#0056A8"/>
<path d="M458.661 172.589C458.661 165.96 458.661 159.332 458.661 152.704C458.728 152.563 460.291 149.345 461.443 149.597C461.583 149.626 461.739 149.715 461.897 149.923C462.076 158.496 462.255 167.066 462.433 175.639C462.069 175.768 461.443 175.92 460.762 175.73C459.57 175.392 458.699 174.134 458.661 172.589Z" fill="#031A5B"/>
<path d="M461.723 175.949C466.663 176.201 471.605 176.452 476.545 176.704C476.617 176.709 477.235 176.743 477.681 176.271C478.11 175.816 478.033 175.26 478.022 175.188C478.04 167.549 478.061 159.91 478.079 152.271C478.054 152.103 477.99 151.829 477.794 151.55C477.427 151.027 476.869 150.868 476.706 150.827C471.845 150.379 466.982 149.928 462.121 149.479C461.967 149.481 461.522 149.508 461.103 149.814C460.565 150.211 460.472 150.782 460.456 150.902C460.339 158.763 460.223 166.624 460.106 174.483C460.192 174.689 460.38 175.061 460.764 175.403C461.128 175.727 461.506 175.879 461.723 175.949Z" fill="#AECDF6"/>
<path d="M462.967 174.934C467.077 175.127 471.187 175.317 475.294 175.51C475.534 175.439 475.928 175.29 476.317 174.968C476.796 174.572 477.018 174.118 477.111 173.885C477.149 166.948 477.185 160.01 477.224 153.073C477.224 152.273 476.581 151.605 475.747 151.537L462.967 150.499C462.024 150.422 461.216 151.131 461.216 152.035V173.4C461.216 174.302 462.026 175.011 462.967 174.934Z" fill="#011B77"/>
<path d="M472.845 158.663C473.385 158.663 473.824 158.244 473.824 157.728V153.848C473.824 153.331 473.385 152.912 472.845 152.912C472.304 152.912 471.865 153.331 471.865 153.848V157.728C471.865 158.244 472.304 158.663 472.845 158.663Z" fill="#014AA8"/>
<path d="M467.656 157.909C468.196 157.909 468.635 157.49 468.635 156.973V153.093C468.635 152.577 468.196 152.157 467.656 152.157C467.115 152.157 466.676 152.577 466.676 153.093V156.973C466.676 157.49 467.115 157.909 467.656 157.909Z" fill="#014AA8"/>
<path d="M475.41 160.982C475.371 163.946 475.335 166.91 475.297 169.874C471.734 169.67 468.172 169.468 464.612 169.264V159.677C468.21 160.112 471.809 160.547 475.41 160.982Z" fill="#F7E7CB"/>
<path d="M465.127 162.69C468.402 162.99 471.68 163.286 474.955 163.585C474.993 162.971 475.03 162.357 475.068 161.743C471.775 161.31 468.482 160.875 465.191 160.442C465.17 161.19 465.148 161.94 465.127 162.69Z" fill="#1F95E5"/>
<path d="M473.824 165.314C473.824 166.119 473.385 166.769 472.845 166.769C472.304 166.769 471.865 166.119 471.865 165.314C471.865 164.51 472.304 163.86 472.845 163.86C473.385 163.86 473.824 164.51 473.824 165.314Z" fill="#1F95E5"/>
<path d="M472.046 164.911C472.259 165.335 472.472 165.761 472.687 166.185L473.598 164.768C473.598 164.768 473.37 164.32 473.309 164.342C473.302 164.345 473.037 164.911 472.714 165.6C472.605 165.419 472.497 165.235 472.388 165.054C472.273 165.006 472.159 164.959 472.046 164.911Z" fill="white"/>
<path d="M252.582 9.40887V122.979C252.582 128.153 257.016 132.388 262.435 132.388H381.361C386.781 132.388 391.214 128.155 391.214 122.979V9.40887C391.214 4.23535 386.781 0 381.361 0H262.435C257.016 0 252.582 4.23309 252.582 9.40887Z" fill="url(#paint7_linear)"/>
<path d="M360.186 124.185C360.661 120.72 360.914 115.361 359.121 109.263C355.852 98.1518 346.859 88.2217 334.616 83.8277C321.997 79.3001 305.096 80.3583 293.42 91.2878C279.521 104.3 282.457 122.467 282.767 124.185C308.575 124.185 334.38 124.185 360.186 124.185Z" fill="#F6FFFF"/>
<path d="M307.984 72.6377H332.132V105.535H307.984V72.6377Z" fill="#C87C52"/>
<path d="M334.618 83.8276C332.021 85.6745 328.158 88.9241 325.03 94.0025C320.248 101.762 319.963 109.271 320.058 112.655C323.847 114.012 327.633 115.367 331.422 116.725C332.487 105.759 333.553 94.7933 334.618 83.8276Z" fill="#98D6E3"/>
<path d="M305.449 83.8662C308.025 85.9238 311.619 89.3185 314.555 94.3447C319.049 102.038 319.547 109.339 319.527 112.997C315.738 114.354 311.952 115.709 308.163 117.067C307.258 105.999 306.353 94.9316 305.449 83.8662Z" fill="#98D6E3"/>
<path d="M300.168 56.3557C300.168 72.8371 309.075 86.2003 320.058 86.2003C331.042 86.2003 339.945 72.8371 339.945 56.3557C339.945 39.8743 331.044 26.5156 320.058 26.5156C309.075 26.5156 300.168 39.8743 300.168 56.3557Z" fill="#FFB584"/>
<path d="M300.167 56.3557C300.167 72.8371 309.075 86.2003 320.058 86.2003V26.5156C309.075 26.5156 300.167 39.8743 300.167 56.3557Z" fill="#EE976E"/>
<path d="M321.834 28.5484C324.903 31.662 324.467 33.8737 327.161 40.0783C331.209 49.4011 334.376 49.4328 338.169 57.3732C341.112 63.5348 341.616 68.5587 342.43 76.7031C343.009 82.4771 343.29 90.7824 341.72 100.783C343.1 97.6804 344.995 93.0281 346.692 87.2178C348.049 82.5678 350.707 71.9987 350.598 58.053C350.541 50.7063 350.444 44.8847 347.933 37.5357C346.287 32.7135 344.572 27.8935 339.766 23.6309C337.789 21.8769 332.299 17.517 324.299 17.1023C316.197 16.6808 308.138 20.2884 308.337 22.4435C308.532 24.5283 316.383 23.0213 321.834 28.5484Z" fill="#B9957F"/>
<path d="M303.721 93.325C299.763 93.6331 296.96 90.0459 296.619 89.5949C293.818 85.8989 294.581 81.2081 294.843 79.4201C297.254 63.0113 292.362 60.7769 295.198 43.4729C296.37 36.3211 298.84 21.256 309.047 17.6982C315.489 15.4525 324.772 17.875 326.448 22.7856C328.027 27.4062 323.091 34.873 312.954 38.7254C310.705 38.952 308.455 39.1786 306.207 39.403C304.32 44.3612 301.932 51.5425 300.17 60.4302C297.921 71.7675 295.852 82.2029 300.88 85.525C302.169 86.3771 305.021 87.4852 311.178 85.1851C310.52 89.7422 307.267 93.0485 303.721 93.325Z" fill="#B9957F"/>
<path d="M309.403 26.8533C311.336 34.4198 312.922 45.7843 309.758 58.7328C307.86 66.492 304.015 82.2256 290.226 89.255C287.164 90.8164 284.35 91.571 282.414 91.9676C286.298 89.0375 288.621 86.2071 289.871 84.5075C301.825 68.2505 292.264 51.0553 304.076 33.2981C306.164 30.1573 308.292 27.9455 309.403 26.8533Z" fill="#C4B28A"/>
<path d="M273.695 100.49C285.253 100.49 294.658 91.5099 294.658 80.4717C294.658 69.4335 285.253 60.4529 273.695 60.4529C262.136 60.4529 252.732 69.4335 252.732 80.4717C252.734 91.5099 262.136 100.49 273.695 100.49ZM273.695 60.965C284.959 60.965 294.122 69.7167 294.122 80.4717C294.122 91.2289 284.959 99.9783 273.695 99.9783C262.431 99.9783 253.268 91.2266 253.268 80.4717C253.268 69.7145 262.433 60.965 273.695 60.965Z" fill="white"/>
<path d="M273.683 98.0771V97.6284C272.636 97.6284 271.587 97.5401 270.564 97.3701L270.483 97.812C271.532 97.9865 272.611 98.0749 273.683 98.0771ZM276.884 97.8143C277.938 97.6398 278.983 97.3724 279.987 97.0234L279.827 96.6019C278.847 96.9418 277.829 97.2002 276.802 97.3724L276.884 97.8143ZM267.382 97.0166L267.542 96.5951C266.565 96.2552 265.611 95.8292 264.708 95.3306L264.473 95.7204C265.398 96.2303 266.378 96.6676 267.382 97.0166ZM282.903 95.7272C283.828 95.2173 284.714 94.6236 285.536 93.9664L285.232 93.622C284.432 94.2633 283.57 94.8389 282.667 95.3374L282.903 95.7272ZM261.842 93.9551L262.146 93.6106C261.347 92.9693 260.603 92.2578 259.931 91.4964L259.572 91.7864C260.259 92.5682 261.024 93.2979 261.842 93.9551ZM287.806 91.8C288.496 91.0182 289.118 90.173 289.654 89.2892L289.247 89.0626C288.725 89.9237 288.119 90.7463 287.447 91.5077L287.806 91.8ZM257.726 89.2733L258.133 89.049C257.611 88.1856 257.165 87.2746 256.808 86.3387L256.364 86.4928C256.733 87.4514 257.19 88.3873 257.726 89.2733ZM291.016 86.5132C291.382 85.5546 291.663 84.5576 291.848 83.5491L291.385 83.4721C291.204 84.4533 290.93 85.4255 290.573 86.3591L291.016 86.5132ZM255.539 83.5287L256.002 83.4517C255.824 82.475 255.733 81.4734 255.733 80.474V80.431H255.263V80.474C255.26 81.4983 255.353 82.5249 255.539 83.5287ZM291.661 80.4922H292.131V80.4718C292.131 79.4543 292.038 78.4323 291.857 77.4374L291.394 77.5145C291.57 78.4844 291.661 79.4792 291.661 80.4718V80.4922ZM256.009 77.451C256.192 76.4698 256.466 75.4999 256.823 74.5663L256.382 74.4122C256.014 75.3708 255.733 76.3678 255.545 77.374L256.009 77.451ZM290.588 74.6252L291.032 74.4711C290.668 73.5103 290.211 72.5744 289.677 71.6883L289.27 71.9127C289.79 72.7783 290.233 73.6893 290.588 74.6252ZM258.156 71.8606C258.678 71.0017 259.287 70.1791 259.958 69.4177L259.599 69.1276C258.909 69.9094 258.287 70.7524 257.749 71.6362L258.156 71.8606ZM287.474 69.463L287.836 69.1752C287.148 68.3912 286.386 67.6615 285.567 67.002L285.264 67.3465C286.06 67.9878 286.804 68.6993 287.474 69.463ZM262.177 67.308C262.978 66.6689 263.842 66.0933 264.744 65.5948L264.509 65.205C263.582 65.7149 262.695 66.3063 261.874 66.9612L262.177 67.308ZM282.704 65.6265L282.941 65.2367C282.016 64.7223 281.037 64.285 280.032 63.9337L279.87 64.3552C280.847 64.6997 281.801 65.1257 282.704 65.6265ZM267.583 64.3348C268.562 63.9972 269.58 63.7388 270.609 63.5689L270.53 63.127C269.476 63.3015 268.431 63.5666 267.425 63.9133L267.583 64.3348ZM276.848 63.5802L276.929 63.1383C275.88 62.9616 274.803 62.8709 273.729 62.8687V63.3173C274.776 63.3196 275.825 63.408 276.848 63.5802Z" fill="white"/>
<path d="M283.24 90.6375C285.14 89.0127 286.542 86.9324 287.295 84.6187C287.544 83.8573 287.099 83.0483 286.3 82.8126C285.504 82.5769 284.656 83.0007 284.409 83.7621C283.819 85.5772 282.717 87.2111 281.224 88.4869C276.678 92.3733 269.669 92.0039 265.597 87.6621C261.528 83.3202 261.915 76.6261 266.461 72.7398C267.083 72.2072 267.135 71.2963 266.579 70.7025C266.022 70.1088 265.066 70.059 264.446 70.5892C258.658 75.5384 258.165 84.0612 263.347 89.5882C268.529 95.1153 277.454 95.5866 283.24 90.6375Z" fill="white"/>
<path d="M266.549 74.3917L268.169 73.0048L263.53 68.0557L261.908 69.4403L266.549 74.3917Z" fill="white"/>
<path d="M289.435 86.8259L290.154 84.8635L284.577 83.0007L283.857 84.9632L289.435 86.8259Z" fill="white"/>
<path d="M277.619 81.369H278.531V80.3017H280.716V79.6831L278.531 76.574H277.619V79.5788H276.879V80.3017H277.619V81.369ZM278.467 77.4578L279.863 79.5788H278.533V78.2803C278.533 78.1421 278.526 78.0197 278.51 77.9087L278.467 77.4578Z" fill="white"/>
<path d="M277.574 81.4143H278.578V80.347H280.763V79.6694L280.756 79.6581L278.558 76.5286H277.576V79.5334H276.836V80.3447H277.576V81.4143H277.574ZM278.485 81.3259H277.664V80.2586H276.925V79.6241H277.664V76.6169H278.506L280.668 79.6966V80.2586H278.483V81.3259H278.485ZM278.485 79.6241H279.944L278.402 77.2809L278.463 77.9132C278.476 78.0219 278.483 78.1466 278.483 78.2803V79.6241H278.485ZM279.779 79.5357H278.578V78.2825C278.578 78.1443 278.571 78.0174 278.555 77.9041L278.531 77.6367L279.779 79.5357Z" fill="white"/>
<path d="M272.697 80.637V81.3712H276.325V80.5486L274.819 79.5923C274.351 79.2932 274.036 79.0303 273.873 78.7992C273.713 78.5681 273.631 78.3573 273.631 78.1647C273.631 77.9335 273.713 77.7387 273.873 77.58C274.034 77.4214 274.244 77.3421 274.5 77.3421C275.063 77.3421 275.387 77.6684 275.47 78.3233L276.325 78.1194C276.26 77.7024 276.067 77.3444 275.744 77.0475C275.42 76.7506 274.997 76.6011 274.473 76.6011C273.93 76.6011 273.496 76.7484 273.172 77.043C272.849 77.3376 272.686 77.7137 272.686 78.167C272.686 78.5681 272.831 78.9284 273.118 79.2433C273.405 79.5583 274.122 80.0252 275.262 80.6393H272.697V80.637Z" fill="white"/>
<path d="M272.652 81.4142H276.37V80.5236L274.844 79.5537C274.382 79.2591 274.068 78.9963 273.912 78.7719C273.756 78.5498 273.679 78.3436 273.679 78.1601C273.679 77.9403 273.756 77.7544 273.907 77.6049C274.059 77.4553 274.258 77.3805 274.502 77.3805C275.043 77.3805 275.346 77.6887 275.427 78.3232L275.434 78.3731L276.38 78.1487L276.373 78.1102C276.307 77.6842 276.106 77.3148 275.778 77.0134C275.448 76.7098 275.009 76.5557 274.475 76.5557C273.923 76.5557 273.473 76.7075 273.143 77.0112C272.81 77.3125 272.641 77.7023 272.641 78.1669C272.641 78.577 272.79 78.9487 273.084 79.2727C273.362 79.5764 274.036 80.0205 275.09 80.5961H272.654V81.4142H272.652ZM276.28 81.3258H272.745V80.68H275.436L275.285 80.5984C274.154 79.9888 273.435 79.522 273.152 79.2115C272.871 78.9056 272.731 78.5544 272.731 78.1646C272.731 77.725 272.889 77.3579 273.204 77.0723C273.518 76.7868 273.946 76.6418 274.473 76.6418C274.982 76.6418 275.398 76.7868 275.712 77.0746C276.015 77.3533 276.205 77.6933 276.275 78.083L275.511 78.2643C275.414 77.6207 275.074 77.2944 274.502 77.2944C274.233 77.2944 274.011 77.3783 273.842 77.546C273.672 77.7114 273.586 77.9199 273.586 78.1623C273.586 78.364 273.67 78.5838 273.835 78.8218C273.998 79.0552 274.321 79.3271 274.792 79.6285L276.278 80.5735V81.3258H276.28Z" fill="white"/>
<path d="M270.928 79.2461C271.274 79.2461 271.552 79.1169 271.758 78.8586C271.966 78.6002 272.07 78.2853 272.07 77.9136C272.07 77.5488 271.966 77.2428 271.756 76.9958C271.548 76.7488 271.267 76.6265 270.917 76.6265C270.525 76.6265 270.233 76.7556 270.046 77.0162C269.858 77.2746 269.763 77.5714 269.763 77.9045C269.763 78.317 269.876 78.6456 270.102 78.8858C270.328 79.126 270.602 79.2461 270.928 79.2461ZM270.923 78.7362C270.591 78.7362 270.426 78.4597 270.426 77.9091C270.426 77.3856 270.586 77.125 270.905 77.125C271.229 77.125 271.391 77.3856 271.391 77.9068C271.391 78.4597 271.235 78.7362 270.923 78.7362ZM267.657 76.6695L270.704 81.3694H271.249L268.191 76.6695H267.657ZM268.017 81.4102C268.34 81.4102 268.609 81.2901 268.822 81.0499C269.035 80.8097 269.141 80.5083 269.141 80.1435C269.141 79.7242 269.023 79.3934 268.786 79.1509C268.548 78.9084 268.277 78.7883 267.969 78.7883C267.677 78.7883 267.417 78.9016 267.187 79.126C266.956 79.3503 266.841 79.6902 266.841 80.1457C266.841 80.5264 266.951 80.8324 267.173 81.0658C267.399 81.2946 267.68 81.4102 268.017 81.4102ZM267.99 80.9117C267.82 80.9117 267.696 80.8324 267.616 80.676C267.537 80.5196 267.499 80.3383 267.499 80.1344C267.499 79.8375 267.537 79.6268 267.612 79.4999C267.689 79.373 267.804 79.3095 267.96 79.3095C268.302 79.3095 268.471 79.5769 268.471 80.1117C268.471 80.6443 268.311 80.9117 267.99 80.9117Z" fill="white"/>
<path d="M268.017 81.4551C268.354 81.4551 268.637 81.3282 268.859 81.079C269.078 80.832 269.189 80.517 269.189 80.1431C269.189 79.7125 269.065 79.3681 268.823 79.1188C268.578 78.8695 268.291 78.7426 267.972 78.7426C267.669 78.7426 267.395 78.8604 267.158 79.0938C266.92 79.3273 266.798 79.6785 266.798 80.1431C266.798 80.5328 266.914 80.8523 267.144 81.0926C267.373 81.3328 267.667 81.4551 268.017 81.4551ZM267.972 78.831C268.266 78.831 268.529 78.9488 268.755 79.18C268.983 79.4134 269.099 79.7374 269.099 80.1431C269.099 80.4966 268.995 80.7912 268.791 81.0223C268.587 81.2512 268.33 81.3668 268.02 81.3668C267.696 81.3668 267.425 81.2534 267.212 81.0336C267 80.8116 266.891 80.5124 266.891 80.1431C266.891 79.7034 267.004 79.3703 267.223 79.155C267.443 78.9398 267.694 78.831 267.972 78.831ZM270.68 81.4143H271.333L268.219 76.6261H267.576L270.68 81.4143ZM271.166 81.326H270.729L267.739 76.7144H268.164L271.166 81.326ZM267.99 80.9543C268.341 80.9543 268.52 80.6688 268.52 80.1091C268.52 79.5471 268.332 79.2638 267.961 79.2638C267.787 79.2638 267.658 79.3363 267.574 79.4768C267.493 79.6128 267.454 79.8281 267.454 80.134C267.454 80.3447 267.495 80.5328 267.576 80.696C267.66 80.8682 267.8 80.9543 267.99 80.9543ZM267.961 79.3499C268.275 79.3499 268.427 79.5969 268.427 80.1091C268.427 80.6189 268.284 80.8682 267.99 80.8682C267.836 80.8682 267.728 80.8002 267.658 80.6575C267.583 80.5079 267.545 80.3311 267.545 80.134C267.545 79.8462 267.581 79.64 267.651 79.5199C267.721 79.4066 267.821 79.3499 267.961 79.3499ZM270.928 79.2887C271.288 79.2887 271.58 79.1528 271.795 78.8854C272.007 78.6202 272.116 78.2939 272.116 77.9132C272.116 77.5393 272.007 77.222 271.793 76.9682C271.575 76.7122 271.281 76.583 270.917 76.583C270.512 76.583 270.205 76.7212 270.008 76.9909C269.816 77.256 269.716 77.5642 269.716 77.9041C269.716 78.3256 269.834 78.6656 270.067 78.9148C270.302 79.1618 270.591 79.2887 270.928 79.2887ZM270.917 76.6691C271.256 76.6691 271.519 76.7847 271.722 77.0226C271.924 77.2606 272.025 77.5597 272.025 77.9132C272.025 78.2735 271.924 78.5817 271.722 78.831C271.521 79.0803 271.261 79.2004 270.928 79.2004C270.619 79.2004 270.352 79.0825 270.137 78.8536C269.92 78.6225 269.809 78.3007 269.809 77.9019C269.809 77.5801 269.902 77.29 270.083 77.0385C270.266 76.7892 270.537 76.6691 270.917 76.6691ZM270.924 78.7789C271.265 78.7789 271.44 78.4843 271.44 77.9064C271.44 77.358 271.261 77.0815 270.908 77.0815C270.56 77.0815 270.383 77.3603 270.383 77.9109C270.381 78.4865 270.564 78.7789 270.924 78.7789ZM270.906 77.1677C271.202 77.1677 271.347 77.4079 271.347 77.9064C271.347 78.4344 271.209 78.6928 270.924 78.6928C270.621 78.6928 270.472 78.4367 270.472 77.9109C270.474 77.4101 270.614 77.1677 270.906 77.1677Z" fill="white"/>
<g opacity="0.69">
<path opacity="0.69" d="M375.46 67.0744L361.699 56.5007C359.424 58.2592 356.653 59.2359 353.826 59.3832L351.333 75.9484C360.111 76.4674 368.996 73.424 375.46 67.0744Z" fill="white"/>
<path opacity="0.69" d="M372.708 23.3407C372.393 23.1005 372.077 22.8625 371.746 22.6382L362.423 36.6699C366.992 40.7104 368.089 47.1416 365.293 52.3038L379.036 62.8638C387.896 50.2462 385.327 33.0351 372.708 23.3407Z" fill="white"/>
<path opacity="0.69" d="M368.084 20.3926C362.002 17.2223 355.117 16.1799 348.542 17.1475L352.898 33.1712C355.253 33.1349 357.626 33.6765 359.767 34.83L368.084 20.3926Z" fill="white"/>
</g>
<path opacity="0.67" d="M307.012 53.8564C307.107 53.8564 307.204 53.8314 307.288 53.777C307.521 53.6297 307.584 53.3329 307.433 53.1108L295.232 35.4148H263.577C263.299 35.4148 263.073 35.6301 263.073 35.8952C263.073 36.1603 263.299 36.3756 263.577 36.3756H294.689L306.591 53.6388C306.688 53.7793 306.849 53.8564 307.012 53.8564Z" fill="white"/>
<path d="M295.383 14.1972H267.766C267.325 14.1972 266.966 13.8391 266.966 13.395C266.966 12.9531 267.323 12.5928 267.766 12.5928H295.383C295.825 12.5928 296.184 12.9508 296.184 13.395C296.184 13.8391 295.825 14.1972 295.383 14.1972Z" fill="white"/>
<path d="M295.345 17.6847H267.805C267.341 17.6847 266.966 17.3267 266.966 16.8825C266.966 16.4406 267.341 16.0803 267.805 16.0803H295.345C295.809 16.0803 296.184 16.4384 296.184 16.8825C296.184 17.3267 295.806 17.6847 295.345 17.6847Z" fill="white"/>
<path d="M295.345 21.1723H267.805C267.341 21.1723 266.966 20.8142 266.966 20.3701C266.966 19.9282 267.341 19.5679 267.805 19.5679H295.345C295.809 19.5679 296.184 19.9259 296.184 20.3701C296.184 20.8142 295.806 21.1723 295.345 21.1723Z" fill="white"/>
<path d="M295.345 24.8478H267.805C267.341 24.8478 266.966 24.4898 266.966 24.0456C266.966 23.6037 267.341 23.2434 267.805 23.2434H295.345C295.809 23.2434 296.184 23.6015 296.184 24.0456C296.184 24.4898 295.806 24.8478 295.345 24.8478Z" fill="white"/>
<path d="M263.883 5.29125C261.173 5.29125 258.977 7.38967 258.977 9.97756V122.408C258.977 124.996 261.173 127.094 263.883 127.094H381.617C384.327 127.094 386.523 124.996 386.523 122.408V9.97756C386.523 7.38967 384.327 5.29125 381.617 5.29125H263.883ZM263.883 3.89307H381.617C385.13 3.89307 387.989 6.62372 387.989 9.97756V122.408C387.989 125.764 385.13 128.493 381.617 128.493H263.883C260.37 128.493 257.511 125.762 257.511 122.408V9.97756C257.509 6.62146 260.368 3.89307 263.883 3.89307Z" fill="white"/>
<path d="M379.054 24.9091C379.459 24.9091 379.787 24.5963 379.787 24.2088V10.6235H366.598C366.193 10.6235 365.865 10.9363 365.865 11.3238C365.865 11.7113 366.193 12.024 366.598 12.024H378.322V24.2111C378.322 24.5963 378.65 24.9091 379.054 24.9091Z" fill="white"/>
<path d="M263.765 23.402C263.767 23.402 263.767 23.402 263.769 23.402C264.174 23.3997 264.5 23.0847 264.498 22.6995L264.43 10.5124L276.153 10.4512C276.558 10.4489 276.884 10.1339 276.881 9.74867C276.879 9.36343 276.551 9.05298 276.149 9.05298C276.146 9.05298 276.146 9.05298 276.144 9.05298L262.955 9.12096L263.032 22.7063C263.034 23.0915 263.362 23.402 263.765 23.402Z" fill="white"/>
<path d="M364.449 122.8H379.593V107.191C379.593 106.804 379.265 106.491 378.86 106.491C378.455 106.491 378.127 106.804 378.127 107.191V121.4H364.449C364.045 121.4 363.717 121.712 363.717 122.1C363.717 122.487 364.045 122.8 364.449 122.8Z" fill="white"/>
<path d="M262.899 122.8H278.042C278.447 122.8 278.775 122.487 278.775 122.1C278.775 121.712 278.447 121.4 278.042 121.4H264.364V107.191C264.364 106.804 264.036 106.491 263.632 106.491C263.227 106.491 262.899 106.804 262.899 107.191V122.8Z" fill="white"/>
<path opacity="0.71" d="M389.205 122.796C399.669 130.439 411.874 138.502 425.868 146.375C439.715 154.165 452.884 160.402 464.847 165.405C395.046 151.201 325.247 136.997 255.446 122.793C300.034 122.796 344.62 122.796 389.205 122.796Z" fill="url(#paint8_linear)"/>
<path d="M347.664 33.6426V86.5471H292.264V33.6426H347.664ZM294.558 84.3558H345.366V35.8362H294.558V84.3558Z" fill="white"/>
<mask id="mask0" mask-type="alpha" maskUnits="userSpaceOnUse" x="294" y="35" width="52" height="50">
<path d="M294.555 35.834H345.366V84.3558H294.555V35.834Z" fill="url(#paint9_linear)"/>
</mask>
<g mask="url(#mask0)">
<path opacity="0.56" d="M294.555 35.834H345.366V84.3558H294.555V35.834Z" fill="url(#paint10_linear)"/>
<path d="M309.296 58.5381C312.053 58.5381 314.295 56.3967 314.295 53.7635C314.295 51.1302 312.053 48.9888 309.296 48.9888C306.539 48.9888 304.298 51.1302 304.298 53.7635C304.298 56.3989 306.539 58.5381 309.296 58.5381ZM309.296 49.4715C311.775 49.4715 313.793 51.3976 313.793 53.7657C313.793 56.1338 311.775 58.06 309.296 58.06C306.817 58.06 304.8 56.1338 304.8 53.7657C304.8 51.3976 306.817 49.4715 309.296 49.4715Z" fill="white"/>
<path d="M309.726 58.5742H308.753C308.91 60.0608 309.066 61.5451 309.222 63.0316C309.389 61.5451 309.556 60.0585 309.726 58.5742Z" fill="white"/>
<path d="M308.932 58.5789L307.971 58.4338C307.882 59.9249 307.792 61.416 307.704 62.9049C308.113 61.4636 308.523 60.0201 308.932 58.5789Z" fill="white"/>
<path d="M308.149 58.4655L307.224 58.1777C306.892 59.6371 306.559 61.0965 306.227 62.5536C306.867 61.1917 307.507 59.8275 308.149 58.4655Z" fill="white"/>
<path d="M307.392 58.2367L306.525 57.8152C305.958 59.2066 305.392 60.598 304.824 61.9893C305.679 60.7385 306.537 59.4876 307.392 58.2367Z" fill="white"/>
<path d="M306.684 57.8967L305.896 57.3506C305.109 58.64 304.32 59.9294 303.533 61.2188C304.582 60.1107 305.634 59.0048 306.684 57.8967Z" fill="white"/>
<path d="M306.039 57.4548L305.351 56.7976C304.363 57.9533 303.372 59.109 302.384 60.2647C303.601 59.3288 304.82 58.3929 306.039 57.4548Z" fill="white"/>
<path d="M305.476 56.9223L304.904 56.1699C303.737 57.1647 302.569 58.1573 301.405 59.1521C302.759 58.4088 304.117 57.6656 305.476 56.9223Z" fill="white"/>
<path d="M305.005 56.3127L304.564 55.4856C303.25 56.2923 301.934 57.1013 300.62 57.908C302.081 57.3755 303.542 56.8453 305.005 56.3127Z" fill="white"/>
<path d="M304.641 55.6418L304.34 54.7581C302.909 55.3586 301.477 55.9591 300.047 56.5619C301.576 56.2537 303.108 55.9478 304.641 55.6418Z" fill="white"/>
<path d="M304.39 54.9214L304.239 54.0037C302.725 54.3844 301.214 54.7628 299.701 55.1435C301.264 55.071 302.827 54.9962 304.39 54.9214Z" fill="white"/>
<path d="M304.261 54.1757V53.2466C302.705 53.3961 301.149 53.5457 299.595 53.6953C301.149 53.8539 302.705 54.0148 304.261 54.1757Z" fill="white"/>
<path d="M304.257 53.419L304.408 52.5012C302.848 52.4151 301.287 52.3312 299.726 52.2451C301.235 52.6349 302.746 53.0269 304.257 53.419Z" fill="white"/>
<path d="M304.374 52.6688L304.675 51.785C303.149 51.4678 301.62 51.1505 300.093 50.8333C301.52 51.4451 302.947 52.057 304.374 52.6688Z" fill="white"/>
<path d="M304.614 51.9483L305.055 51.1211C303.599 50.5795 302.142 50.0379 300.683 49.4963C301.995 50.3121 303.305 51.1302 304.614 51.9483Z" fill="white"/>
<path d="M304.971 51.2706L305.544 50.5183C304.193 49.7659 302.843 49.0136 301.493 48.2612C302.651 49.2651 303.811 50.2667 304.971 51.2706Z" fill="white"/>
<path d="M305.433 50.6542L306.121 49.997C304.91 49.052 303.7 48.1071 302.488 47.1621C303.47 48.3269 304.451 49.4917 305.433 50.6542Z" fill="white"/>
<path d="M305.989 50.1172L306.777 49.571C305.736 48.4561 304.696 47.3434 303.655 46.2285C304.433 47.5247 305.211 48.8209 305.989 50.1172Z" fill="white"/>
<path d="M306.627 49.6664L307.493 49.2449C306.647 47.9894 305.802 46.734 304.958 45.4763C305.514 46.8745 306.071 48.2704 306.627 49.6664Z" fill="white"/>
<path d="M307.333 49.3196L308.258 49.0318C307.629 47.6653 307 46.2988 306.369 44.9324C306.691 46.394 307.012 47.8556 307.333 49.3196Z" fill="white"/>
<path d="M308.086 49.0794L309.048 48.9344C308.65 47.4908 308.251 46.0473 307.856 44.6016C307.93 46.0949 308.007 47.5883 308.086 49.0794Z" fill="white"/>
<path d="M308.867 48.9569H309.839C309.683 47.4704 309.527 45.9861 309.371 44.4995C309.204 45.9861 309.036 47.4704 308.867 48.9569Z" fill="white"/>
<path d="M309.66 48.9525L310.622 49.0975C310.71 47.6064 310.8 46.1153 310.889 44.6265C310.479 46.0677 310.07 47.509 309.66 48.9525Z" fill="white"/>
<path d="M310.445 49.0656L311.37 49.3534C311.703 47.894 312.035 46.4346 312.368 44.9775C311.725 46.3395 311.085 47.7014 310.445 49.0656Z" fill="white"/>
<path d="M311.201 49.2947L312.067 49.7162C312.635 48.3248 313.2 46.9334 313.768 45.542C312.913 46.7929 312.056 48.0438 311.201 49.2947Z" fill="white"/>
<path d="M311.909 49.6346L312.696 50.1807C313.483 48.8913 314.272 47.6019 315.059 46.3125C314.01 47.4206 312.96 48.5265 311.909 49.6346Z" fill="white"/>
<path d="M312.553 50.0763L313.241 50.7335C314.229 49.5778 315.22 48.4221 316.208 47.2664C314.992 48.2023 313.772 49.1382 312.553 50.0763Z" fill="white"/>
<path d="M313.119 50.6066L313.691 51.3589C314.858 50.3641 316.025 49.3715 317.19 48.3767C315.833 49.12 314.476 49.8633 313.119 50.6066Z" fill="white"/>
<path d="M313.587 51.2186L314.028 52.0457C315.342 51.239 316.659 50.43 317.973 49.6233C316.514 50.1558 315.05 50.6861 313.587 51.2186Z" fill="white"/>
<path d="M313.953 51.8893L314.254 52.7731C315.686 52.1725 317.118 51.572 318.547 50.9692C317.016 51.2774 315.485 51.5834 313.953 51.8893Z" fill="white"/>
<path d="M314.202 52.6076L314.354 53.5254C315.865 53.1447 317.378 52.7662 318.889 52.3855C317.328 52.4603 315.765 52.5351 314.202 52.6076Z" fill="white"/>
<path d="M314.331 53.3555V54.2846C315.887 54.135 317.443 53.9855 318.997 53.8359C317.443 53.6773 315.887 53.5164 314.331 53.3555Z" fill="white"/>
<path d="M314.336 54.1123L314.184 55.0301C315.745 55.1162 317.305 55.2 318.866 55.2861C317.357 54.8941 315.847 54.5043 314.336 54.1123Z" fill="white"/>
<path d="M314.218 54.8623L313.917 55.7461C315.444 56.0633 316.973 56.3806 318.5 56.6979C317.073 56.086 315.645 55.4742 314.218 54.8623Z" fill="white"/>
<path d="M313.978 55.583L313.537 56.4101C314.994 56.9517 316.451 57.4933 317.909 58.0349C316.598 57.2191 315.288 56.4011 313.978 55.583Z" fill="white"/>
<path d="M313.623 56.2605L313.051 57.0128C314.401 57.7652 315.751 58.5175 317.102 59.2699C315.941 58.266 314.781 57.2644 313.623 56.2605Z" fill="white"/>
<path d="M313.159 56.877L312.472 57.5341C313.682 58.4791 314.892 59.4241 316.104 60.369C315.123 59.2042 314.141 58.0395 313.159 56.877Z" fill="white"/>
<path d="M312.603 57.4141L311.816 57.9602C312.856 59.0751 313.897 60.1878 314.937 61.3027C314.159 60.0065 313.381 58.7103 312.603 57.4141Z" fill="white"/>
<path d="M311.965 57.865L311.099 58.2865C311.945 59.5419 312.791 60.7973 313.634 62.055C313.078 60.6568 312.522 59.2609 311.965 57.865Z" fill="white"/>
<path d="M311.26 58.2117L310.334 58.4995C310.963 59.8659 311.592 61.2324 312.223 62.5988C311.902 61.1372 311.581 59.6756 311.26 58.2117Z" fill="white"/>
<path d="M310.509 58.4497L309.547 58.5947C309.945 60.0383 310.343 61.4818 310.739 62.9275C310.662 61.4364 310.585 59.9431 310.509 58.4497Z" fill="white"/>
<path d="M309.296 56.9564C311.14 56.9564 312.639 55.5242 312.639 53.7657C312.639 52.0049 311.14 50.5728 309.296 50.5728C307.453 50.5728 305.953 52.0049 305.953 53.7657C305.953 55.5265 307.453 56.9564 309.296 56.9564ZM309.296 51.0532C310.864 51.0532 312.137 52.2701 312.137 53.7657C312.137 55.2613 310.864 56.4782 309.296 56.4782C307.729 56.4782 306.455 55.2613 306.455 53.7657C306.455 52.2701 307.729 51.0532 309.296 51.0532Z" fill="white"/>
<path d="M297.424 46.7157C303.85 46.7157 309.077 41.7235 309.077 35.5868C309.077 29.4502 303.85 24.458 297.424 24.458C290.998 24.458 285.771 29.4502 285.771 35.5868C285.771 41.7235 290.998 46.7157 297.424 46.7157ZM297.424 25.8585C303.04 25.8585 307.611 30.223 307.611 35.5868C307.611 40.9507 303.042 45.3152 297.424 45.3152C291.805 45.3152 287.236 40.9507 287.236 35.5868C287.236 30.223 291.805 25.8585 297.424 25.8585Z" fill="white"/>
<path d="M345.074 94.5101C351.537 94.5101 356.793 89.4907 356.793 83.3178C356.793 77.1472 351.537 72.1255 345.074 72.1255C338.612 72.1255 333.356 77.1449 333.356 83.3178C333.356 89.4907 338.612 94.5101 345.074 94.5101ZM345.074 73.6528C350.654 73.6528 355.196 77.9879 355.196 83.3178C355.196 88.6477 350.657 92.9827 345.074 92.9827C339.494 92.9827 334.953 88.6477 334.953 83.3178C334.953 77.9902 339.494 73.6528 345.074 73.6528Z" fill="white"/>
</g>
<path d="M239 282.622C244.421 283.304 250.391 283.734 256.83 283.723C263.073 283.712 268.872 283.286 274.156 282.622C274.156 276.458 274.156 270.296 274.156 264.133H239V282.622Z" fill="white"/>
<path d="M239 263.874C239.05 265.168 249.517 265.882 256.577 265.882C263.634 265.882 274.104 265.173 274.154 263.874C274.201 262.669 265.244 260.974 256.721 260.953C248.018 260.935 238.952 262.664 239 263.874Z" fill="#B9D0F9"/>
<path d="M234.738 144.713C233.972 145.722 234.273 146.998 234.291 147.07C234.582 148.224 235.34 148.21 235.86 149.427C236.245 150.327 236.168 151.129 236.084 151.997C235.935 153.538 235.462 154.204 234.962 155.638C234.401 157.25 233.474 159.905 234.515 162.063C234.947 162.958 235.582 163.493 236.532 164.204C238.283 165.514 240.927 167.297 244.607 169.131C244.63 169.813 244.611 170.848 244.383 172.077C243.962 174.32 243.148 175.508 242.7 176.736C242.171 178.191 241.888 180.441 243.205 183.804C244.326 183.054 245.448 182.304 246.568 181.556C246.181 182.693 245.681 184.409 245.39 186.534C244.964 189.639 245.367 190.804 247.24 201.473C247.932 205.413 248.316 207.766 250.436 209.825C251.347 210.712 252.288 211.262 252.96 211.593C253.381 214.283 253.288 216.413 253.127 217.857C252.876 220.125 252.508 220.222 252.286 222.835C252.1 225.024 252.293 225.758 251.614 226.69C250.594 228.093 248.895 228.174 248.923 228.938C248.95 229.683 250.578 230.166 250.773 230.223C253.143 230.905 255.416 229.572 256.156 229.099C255.952 228.38 255.733 227.392 255.652 226.207C255.505 224.07 255.88 222.459 255.989 222.031C256.212 221.129 256.593 219.663 257.671 218.176C258.601 216.891 259.612 216.198 260.193 215.767C262.806 213.832 265.891 210.451 266.922 207.253C267.492 205.486 267.189 203.718 266.585 200.185C266.398 199.093 265.71 195.329 262.381 187.173C261.621 185.313 260.616 182.961 259.352 180.266C259.888 180.396 261.021 180.745 262.044 181.712C263.36 182.956 263.649 184.425 263.726 184.925C264.041 184.058 264.873 181.381 263.726 178.34C263.037 176.509 261.91 175.295 261.202 174.646C261.498 174.32 262.229 173.425 262.381 172.077C262.496 171.046 262.215 170.232 262.044 169.829C264.624 169.142 266.389 168.125 267.427 167.42C269.548 165.976 269.356 165.337 271.295 164.046C271.473 163.928 271.842 163.688 272.052 163.243C272.398 162.511 272.111 161.657 271.548 160.592C270.953 159.468 270.236 158.46 268.689 156.737C267.056 154.918 266.221 154.002 265.409 153.767C265.07 153.667 264.251 153.486 263.055 153.044C262.625 152.885 262.277 152.74 262.046 152.643C261.935 152.287 261.673 151.639 261.037 151.117C260.263 150.481 259.029 150.109 258.682 150.474C258.492 150.673 258.558 151.106 258.766 151.358C259.067 151.718 259.508 151.519 260.112 151.84C260.528 152.06 260.42 152.21 261.037 152.803C261.777 153.517 262.028 153.395 262.55 154.009C262.98 154.512 262.908 154.707 263.308 155.054C263.729 155.416 264.217 155.554 264.57 155.616C265.303 156.456 265.694 157.225 265.916 157.784C266.312 158.777 266.291 159.4 266.841 160.354C267.203 160.984 267.628 161.433 267.933 161.721C267.32 162.162 266.705 162.618 266.083 163.087C264.909 163.973 263.787 164.859 262.72 165.738C261.872 165.761 260.971 165.813 260.028 165.899C258.92 166.001 257.882 166.139 256.916 166.3C253.641 166.083 251.748 165.682 250.608 165.337C250.137 165.195 249.377 164.936 248.253 164.775C247.02 164.599 246.634 164.725 245.815 164.535C244.636 164.261 243.942 163.651 243.293 163.169C242.309 162.439 240.773 161.514 238.414 160.76C238.482 159.919 238.538 159.062 238.581 158.19C238.717 155.425 238.703 152.794 238.581 150.32C238.728 149.785 238.832 149.033 238.498 148.312C238.052 147.347 237.269 147.399 236.564 146.304C235.856 145.205 236.034 144.21 235.555 144.136C235.225 144.072 234.904 144.494 234.738 144.713Z" fill="white"/>
<path d="M254.138 170.789C253.27 171.098 251.845 169.507 251.196 168.541C250.311 167.229 250.085 165.922 250.017 165.149C250.474 165.208 251.16 165.222 251.868 164.927C253.216 164.363 254.08 162.91 254.118 161.22C255.107 163.044 256.093 164.87 257.081 166.695C256.663 166.937 256.124 167.318 255.652 167.9C254.512 169.301 254.837 170.54 254.138 170.789Z" fill="#DDE8FF"/>
<path d="M262.211 158.902C262.387 159.076 263.602 160.32 263.557 162.115C263.48 165.163 259.804 168.093 257.249 167.336C255.502 166.819 254.74 164.719 254.641 164.445C254.143 163.071 254.403 161.886 254.557 161.231C254.785 160.254 255.156 158.668 256.574 157.857C258.314 156.864 260.806 157.506 262.211 158.902Z" fill="white"/>
<path d="M252.709 159.865C252.992 160.655 253.89 161.383 254.559 161.231C255.324 161.057 255.199 159.871 256.242 158.741C256.973 157.95 257.914 157.574 258.655 157.379C258.479 157.095 258.124 156.624 257.504 156.329C256.26 155.74 254.842 156.295 254.055 156.891C253.971 156.955 252.168 158.36 252.709 159.865Z" fill="#DDE8FF"/>
<path d="M268.146 230.22C268.124 231.501 268.101 232.783 268.076 234.064C260.469 233.919 252.861 233.774 245.254 233.631C245.179 232.33 245.102 231.029 245.028 229.726C252.734 229.892 260.44 230.055 268.146 230.22Z" fill="#DDE8FF"/>
<path d="M273.642 233.737C262.096 233.69 250.547 233.642 239 233.595C239.056 234.29 239.113 234.986 239.167 235.682C240.009 236.484 240.85 237.289 241.689 238.091C251.445 238.145 261.202 238.197 270.958 238.252C271.856 237.556 272.751 236.86 273.649 236.165C273.647 235.356 273.645 234.546 273.642 233.737Z" fill="white"/>
<path d="M241.354 238.254V262.349C245.089 263.265 250.142 264.135 256.156 264.135C258.814 264.135 261.284 263.965 263.536 263.697C266.38 263.358 268.874 262.861 270.96 262.351V238.256H241.354V238.254Z" fill="#DDE8FF"/>
<path d="M241.354 241.546V262.349C245.089 263.265 250.142 264.135 256.156 264.135C258.814 264.135 261.284 263.965 263.536 263.698V248.356C263.536 244.61 260.327 241.546 256.405 241.546H241.354Z" fill="white"/>
<path d="M259.336 180.282C258.411 179.754 256.844 179.031 254.794 178.873C250.431 178.533 247.312 181.005 246.62 181.583C245.392 183.951 244.946 186.099 244.917 187.98C244.869 191.117 246.005 191.964 246.62 196.437C247.217 200.772 246.579 203.091 247.301 203.267C248.129 203.471 249.895 200.659 250.707 197.738C251.655 194.323 250.795 192.576 251.049 190.255C251.32 187.763 252.922 184.237 259.336 180.282Z" fill="#DDE8FF"/>
<path d="M241.737 238.075C251.463 238.147 261.191 238.22 270.917 238.292C271.826 237.569 272.733 236.846 273.642 236.124C262.288 236.124 250.933 236.124 239.579 236.124C240.298 236.774 241.017 237.424 241.737 238.075Z" fill="#B9D0F9"/>
<path d="M531.436 290.95C532.985 294.505 534.521 298.471 535.919 302.826C537.357 307.306 538.434 311.524 539.244 315.394C539.364 315.958 539.692 317.857 538.52 319.537C537.038 321.662 533.781 322.535 532.736 321.608C532.155 321.091 532.578 320.303 532.447 318.569C532.377 317.638 532.148 316.493 530.712 313.597C527.905 307.941 525.218 304.345 525.218 304.345C520.862 298.518 515.892 293.993 512.348 291.088C518.708 291.043 525.073 290.997 531.436 290.95Z" fill="#EE976E"/>
<path d="M525.7 332.703C526.577 333.899 528.968 333.326 529.653 333.163C530.631 332.929 531.556 332.492 532.739 331.597C534.365 330.369 534.883 329.487 536.69 327.362C538.904 324.76 539.999 323.448 541.51 322.666C542.67 322.066 544.423 321.506 546.97 321.703C546.479 320.935 545.805 320.049 544.883 319.167C542.888 317.264 540.721 316.337 539.352 315.884C539.241 316.482 538.943 317.583 538.038 318.617C536.308 320.595 533.768 320.72 533.313 320.733C532.999 319.924 532.684 319.118 532.37 318.309C531.967 319.65 531.592 321.137 531.289 322.759C530.895 324.873 530.696 326.825 530.615 328.558C530.35 328.914 529.889 329.424 529.169 329.755C527.69 330.434 526.523 329.709 525.795 330.398C525.229 330.938 525.222 332.055 525.7 332.703Z" fill="white"/>
<path d="M526.084 333.07C526.451 333.55 527.037 334.176 527.914 334.636C529.407 335.415 531.619 335.646 536.688 333.532C543.057 330.874 549.262 326.46 548.739 324.051C548.513 323.006 547.773 322.301 547.773 322.301C547.054 321.612 546.197 321.433 545.941 321.379C544.36 321.048 542.811 321.821 541.506 322.668C539.045 324.273 538.475 325.49 535.048 329.113C532.295 332.023 531.16 332.823 529.649 333.163C528.224 333.485 526.942 333.287 526.084 333.07Z" fill="#AFDCF4"/>
<path d="M527.916 334.636C529.409 335.415 531.621 335.646 536.69 333.532C543.06 330.874 549.264 326.46 548.741 324.051C548.244 323.326 546.636 323.548 546.33 323.591C545.116 323.758 544.152 324.334 542.668 325.614C540.698 327.314 540.268 328.13 538.33 330.033C536.828 331.509 536.077 332.245 535.053 332.886C533.84 333.643 531.585 334.699 527.916 334.636Z" fill="#30ACDF"/>
<path d="M507.189 289.248C505.479 291.299 506.026 294.172 507.189 299.835C509.034 308.825 513.074 318.805 511.045 321.653C510.882 321.882 510.179 322.768 510.371 323.77C510.561 324.76 511.527 325.368 511.914 325.612C513.239 326.446 514.651 326.376 515.096 326.349C517.786 326.181 519.428 324.151 519.724 323.77C519.518 323.271 519.253 322.548 519.05 321.653C518.536 319.41 518.742 317.597 518.858 316.682C519.31 313.115 519.536 311.331 520.4 308.671C521.425 305.516 521.893 299.577 519.244 287.313C517.093 286.898 510.102 285.756 507.189 289.248Z" fill="#FFB584"/>
<path d="M521.072 334.82C521.438 334.314 521.972 333.439 522.228 332.241C522.42 331.341 522.391 330.568 522.325 330.031C514.067 328.343 505.807 326.655 497.549 324.969C497.327 325.093 496.619 325.531 496.393 326.349C496.178 327.119 496.513 327.779 496.682 328.098C496.872 328.461 497.625 329.723 501.984 331.044C503.009 331.355 504.241 331.62 506.709 332.15C508.577 332.551 509.509 332.751 510.566 332.887C511.733 333.036 512.219 333.032 513.264 333.256C514.537 333.528 515.279 333.85 515.962 334.085C517.068 334.461 518.738 334.856 521.072 334.82Z" fill="#AFDCF4"/>
<path d="M521.938 330.124C522.284 329.557 522.162 328.909 521.938 327.731C521.515 325.499 520.219 324.01 519.552 323.342C519.047 323.613 518.324 323.956 517.408 324.232C515.881 324.694 514.709 325.048 513.551 324.599C511.843 323.938 511.129 321.903 511.045 321.653C510.701 320.631 510.85 319.933 510.371 319.72C510.113 319.605 509.683 319.634 508.444 320.55C506.641 321.88 506.456 322.623 505.166 323.589C504.569 324.035 503.495 324.839 501.984 325.061C499.779 325.388 498.32 324.225 497.548 324.969C497.098 325.404 497.227 326.158 497.259 326.349C497.548 328.046 499.84 328.966 500.923 329.388C503.979 330.575 506.082 330.228 510.179 330.308C517.471 330.453 520.945 331.753 521.938 330.124Z" fill="white"/>
<path d="M487.295 197.702C484.923 194.26 483.023 190.967 481.496 187.974C481.157 187.885 480.661 187.742 480.08 187.516C478.596 186.936 477.201 186.39 476.615 185.198C476.092 184.137 476.439 183.033 476.658 182.326C477.208 180.566 478.499 179.553 479.044 179.172C477.954 177.84 476.864 176.507 475.776 175.177C475.749 175.073 475.694 174.814 475.803 174.517C475.839 174.415 475.952 174.121 476.276 173.946C476.703 173.715 477.153 173.887 477.212 173.91C478.845 175.773 480.478 177.636 482.111 179.496C482.561 179.745 482.93 180.029 483.183 180.242C483.358 179.371 483.534 178.501 483.708 177.631C483.704 177.194 484.043 176.89 484.314 176.901C484.604 176.913 484.934 177.28 484.841 177.744C484.991 178.263 485.142 179.02 485.111 179.936C485.079 180.842 484.88 181.581 484.699 182.088C484.821 182.456 484.948 182.988 484.954 183.634C484.959 184.207 484.864 184.688 484.767 185.037C488.865 190.219 492.966 195.402 497.064 200.582C499.514 201.541 501.964 202.499 504.413 203.458C505.035 205.898 505.657 208.337 506.279 210.777C503.484 209.968 500.36 208.849 497.076 207.274C495.633 206.583 494.291 205.869 493.052 205.151C491.179 202.984 489.225 200.503 487.295 197.702Z" fill="#FFBC92"/>
<path d="M480.578 182.78C481.005 182.44 481.073 181.837 480.727 181.44L478.271 178.617C477.925 178.22 477.294 178.173 476.864 178.51C476.436 178.85 476.369 179.453 476.715 179.85L479.171 182.673C479.517 183.072 480.15 183.12 480.578 182.78Z" fill="#DD966C"/>
<path d="M479.193 183.988C479.614 183.596 479.684 183.004 479.349 182.675L477.122 180.493C476.785 180.165 476.165 180.217 475.744 180.609C475.323 181.001 475.253 181.592 475.588 181.921L477.816 184.103C478.153 184.434 478.773 184.382 479.193 183.988Z" fill="#DD966C"/>
<path d="M478.103 185.476C477.796 185.794 477.269 185.809 476.932 185.513L474.742 183.575C474.405 183.278 474.383 182.775 474.69 182.458C474.998 182.141 475.525 182.125 475.862 182.422L478.051 184.359C478.388 184.656 478.413 185.159 478.103 185.476Z" fill="#DD966C"/>
<path d="M534.471 297.166C533.643 288.154 533.146 280.843 532.847 275.962C531.755 258.073 531.942 249.514 526.566 239.165C525.136 236.412 523.7 234.277 522.71 232.904C521.201 233.749 518.977 234.728 516.155 235.113C509.005 236.087 503.506 232.5 502.047 231.48C500.767 233.443 499.041 236.423 497.644 240.268C493.979 250.359 495.646 258.001 495.716 267.518C495.762 273.589 495.169 282.139 492.247 292.559C493.421 293.359 495.517 294.564 498.417 295.138C502.068 295.858 505.06 295.194 506.515 294.768C507.008 295.122 507.799 295.604 508.876 295.919C510.154 296.293 511.258 296.262 511.914 296.196C513.069 297.576 515.673 297.576 515.818 296.196C517.213 295.788 518.833 295.6 520.156 296.334C521.579 297.123 521.554 298.362 523.049 299.235C524.383 300.014 525.815 299.849 527.532 299.65C529.009 299.48 531.594 298.967 534.471 297.166Z" fill="#1864D3"/>
<path d="M502.047 231.48C501.613 230.726 501.285 229.212 500.634 226.184C499.808 222.362 499.397 220.449 499.333 217.9C499.268 215.334 499.204 212.783 500.347 210.027C500.636 209.327 501.839 206.601 506.564 202.984C511.538 199.177 516.77 195.173 523.049 196.218C527.412 196.943 531.058 199.902 532.881 202.846C537.466 210.247 533.691 222.661 522.71 232.906C522.119 233.513 518.344 237.275 512.49 237.096C508.292 236.964 503.979 234.834 502.047 231.48Z" fill="white"/>
<path d="M498.609 253.527C499.091 251.481 499.46 251.449 500.055 249.385C500.306 248.517 500.643 247.128 500.923 239.856C501.059 236.294 501.002 235.992 501.213 234.746C501.652 232.142 502.344 230.807 502.948 228.947C503.583 226.982 504.241 224.048 504.103 220.109C505.999 220.508 507.894 220.907 509.792 221.306C510.726 226.18 510.749 230.307 510.563 233.273C510.26 238.082 510.111 240.486 508.828 243.031C507.453 245.761 505.85 246.967 505.551 250.028C505.488 250.67 505.497 251.264 505.935 254.631C506.18 256.503 506.417 258.143 506.621 259.487C506.784 259.6 506.901 259.773 506.931 259.977L507.761 265.626C507.82 266.025 507.526 266.397 507.107 266.453C506.689 266.51 506.3 266.229 506.241 265.83L505.497 260.768C505.318 260.74 505.142 260.711 504.963 260.684L505.483 266.963C505.519 267.391 505.18 267.77 504.732 267.804L504.624 267.813C504.176 267.847 503.78 267.525 503.744 267.097L503.19 260.405C503.052 260.382 502.914 260.362 502.776 260.339L503.411 268.039C503.452 268.524 503.07 268.95 502.563 268.989L502.452 268.998C501.946 269.037 501.498 268.672 501.459 268.187L500.785 260.022C500.591 259.99 500.396 259.961 500.199 259.929L500.819 267.421C500.86 267.906 500.475 268.334 499.969 268.373L499.851 268.382C499.342 268.42 498.894 268.053 498.854 267.568L498.195 259.61C498.189 259.607 498.18 259.607 498.173 259.605C498.053 258.157 498.023 256.013 498.609 253.527Z" fill="#FFBC92"/>
<path d="M516.347 206.574C515.062 215.289 513.775 224.005 512.49 232.72C510.265 230.769 508.899 228.913 508.055 227.565C506.406 224.925 505.804 222.681 504.511 222.627C503.662 222.593 502.932 223.513 502.464 224.249C502.353 221.922 502.436 219.033 503.043 215.779C503.938 210.977 505.639 207.172 507.091 204.548C510.177 205.223 513.262 205.898 516.347 206.574Z" fill="#E4F9FB"/>
<path d="M517.505 187.242C515.055 188.418 512.764 188.261 511.335 188.162C509.564 188.039 505.926 187.79 504.78 185.583C504.106 184.287 504.599 182.909 505.359 180.794C506.18 178.503 507.044 176.099 509.407 174.166C511.92 172.111 516.964 169.906 520.398 172.14C523.056 173.871 523.248 177.286 523.291 178.032C523.512 182.014 520.848 185.635 517.505 187.242Z" fill="#FFB584"/>
<path d="M507.478 197.552C508.639 197.7 509.724 197.255 510.177 196.446C510.814 195.307 509.88 193.992 509.79 193.868C509.025 192.823 508.023 192.961 507.668 192.211C507.419 191.683 507.517 190.772 509.019 189.082C508.591 188.041 508.155 186.467 508.826 185.03C509.462 183.668 510.715 183.249 512.875 181.715C513.879 181.003 515.331 179.872 516.924 178.216C516.125 177.237 515.16 175.825 514.418 173.98C513.929 172.768 513.653 171.651 513.493 170.719C514.189 170.296 515.449 169.648 517.139 169.432C517.139 169.432 519.201 169.167 521.552 169.931C525.191 171.114 532.318 176.133 534.085 184.66C534.471 186.532 534.937 190.19 533.505 194.788C535.136 196.607 535.862 198.345 536.204 199.39C536.586 200.559 537.706 204.584 535.817 208.412C534.804 210.467 533.632 211.031 533.695 212.647C533.745 213.898 534.58 214.111 536.009 216.329C537.24 218.24 538.735 220.56 537.936 222.405C537.742 222.856 537.199 223.767 535.43 224.431C536.398 223.021 536.396 221.199 535.43 219.828C534.394 218.355 532.44 217.678 530.61 218.172C530.185 218.974 529.642 220.261 529.647 221.854C529.651 224.252 530.891 224.956 530.997 227.562C531.036 228.521 531.119 230.588 529.647 232.165C528.536 233.355 527.064 233.703 526.369 233.821C526.586 233.563 528.787 230.88 527.72 228.666C527.573 228.362 527.172 227.669 525.598 226.824C522.522 225.174 521.002 226.196 518.464 225.167C516.763 224.478 517.195 223.918 512.681 219.459C509.98 216.792 509.898 217.066 508.44 215.407C506.675 213.406 505.008 211.514 504.199 208.595C503.882 207.457 503.341 205.404 504.006 202.887C504.766 200.013 506.65 198.246 507.478 197.552Z" fill="#C4B28A"/>
<path d="M524.302 175.007C527.342 174.973 531.8 184.026 530.547 192.356C529.877 196.802 528.317 198.101 527.821 203.417C527.383 208.115 529.002 209.69 529.183 213.175C529.502 219.321 525.044 227.034 519.077 230.089C516.281 231.521 514.906 231.136 514.422 230.957C512.459 230.23 511.267 227.723 511.242 224.56C512.617 226.085 514.63 226.824 516.465 226.402C518.853 225.854 519.814 223.597 520.097 222.933C520.285 222.495 520.902 220.88 520.097 217.403C519.396 214.374 518.342 213.216 517.713 211.548C516.071 207.188 519.554 205.2 520.439 198.536C521.362 191.59 518.039 190.276 519.416 183.573C520.068 180.425 521.968 175.034 524.302 175.007Z" fill="#B9957F"/>
<path d="M524.302 175.007C519.649 175.002 515.526 177.001 514.083 180.212C512.081 184.663 515.906 189.947 516.58 190.838C517.91 192.592 518.819 192.861 519.986 194.958C520.706 196.249 522.232 198.991 521.576 201.464C520.554 205.311 515.191 204.917 512.266 208.838C510.832 210.759 509.627 214.199 511.586 220.764C511.124 218.337 510.86 214.675 512.947 211.657C516.032 207.197 521.318 208.378 524.302 203.632C526.111 200.754 526.731 196.24 524.756 193.439C523.282 191.348 521.269 191.502 519.988 188.884C518.986 186.84 519.258 184.796 519.421 183.57C519.789 180.79 521.097 178.85 521.805 177.824C522.691 176.543 523.621 175.612 524.302 175.007Z" fill="#F0E4D5"/>
<path d="M387.76 255.086C382.603 253.745 377.331 252.376 371.934 250.973C371.956 220.682 371.979 190.396 371.999 160.112L387.758 161.587V255.086H387.76Z" fill="#5698D8"/>
<path d="M388.694 256.376V160.683L370.997 158.988L370.93 251.798L388.694 256.376ZM386.824 162.491V253.79L372.936 250.148L373.001 161.229L386.824 162.491Z" fill="#2A78EA"/>
<path d="M359.046 208.89L389.024 159.33V257.119L359.046 208.89Z" fill="#FFF0F0"/>
<path d="M389.954 260.496V155.892L357.804 208.905L389.954 260.496ZM388.093 162.783V253.729L360.281 208.874L388.093 162.783Z" fill="#337FEF"/>
<path d="M282.807 152.613C298.435 151.002 313.116 149.488 326.934 148.065C326.803 157.22 326.672 166.38 326.541 175.546C330.402 175.374 334.199 175.204 337.934 175.039C337.974 202.667 338.017 230.289 338.058 257.908C323.679 257.081 308.339 256.199 291.941 255.257C291.941 246.24 291.941 237.223 291.941 228.206C288.935 228.104 285.89 228 282.81 227.893C282.807 202.796 282.807 177.706 282.807 152.613Z" fill="#F79D8D"/>
<path d="M280.709 156.13C295.657 154.621 309.742 153.2 323.035 151.856C322.908 160.23 322.781 168.607 322.655 176.992C326.375 176.833 330.037 176.675 333.641 176.521C333.681 201.817 333.722 227.109 333.76 252.397C319.898 251.542 305.152 250.631 289.435 249.662C289.435 241.442 289.435 233.223 289.435 225.004C286.56 224.898 283.649 224.791 280.706 224.682C280.708 201.833 280.709 178.982 280.709 156.13Z" fill="#FFC9B9"/>
<path d="M324.304 176.922L323.035 176.847V151.859L324.304 152.001V176.922Z" fill="#F79D8D"/>
<path d="M334.844 251.588C334.444 251.925 334.043 252.265 333.643 252.605V176.523C334.043 176.765 334.446 177.006 334.844 177.246C334.844 202.026 334.844 226.808 334.844 251.588Z" fill="#F79D8D"/>
<path d="M224.705 138.625V199.281L197.712 201.026V137.242L224.705 138.625Z" fill="#B1CFF6"/>
<path d="M196.461 202.395L226.026 200.521V137.349L196.461 135.871V202.395ZM223.386 198.046L198.965 199.655V138.615L223.386 139.898V198.046Z" fill="#2372E5"/>
<path d="M224.705 258.637V205.366L197.712 205.762V263.077L224.705 258.637Z" fill="#5698D8"/>
<path d="M196.461 264.586L226.026 259.761V204.02L196.461 204.493V264.586ZM223.386 257.516L198.965 261.563V207.036L223.386 206.707V257.516Z" fill="#2B70D6"/>
<path d="M166.907 131.164V204.384L192.299 202.778C192.299 180.232 192.299 157.685 192.299 135.139C183.693 133.793 175.231 132.467 166.907 131.164Z" fill="#DCF1FF"/>
<path d="M165.729 205.71L193.541 203.983V134.001L165.729 129.685V205.71ZM191.06 201.575L168.088 203.057V132.649L191.06 136.274V201.575Z" fill="#1D6BDD"/>
<path d="M166.907 269.338V213.981L192.299 212.615V263.102L166.907 269.338Z" fill="#3579BC"/>
<path d="M165.729 270.911L193.541 264.117V211.264L165.729 212.794V270.911ZM191.06 262.091L168.088 267.761V215.169L191.06 213.963V262.091Z" fill="#2D76E0"/>
<path d="M131.878 123.426L129.892 208.044L159.278 208.072V129.957L131.878 123.426Z" fill="#FFF0F0"/>
<path d="M160.443 209.318V128.914L130.819 121.894L128.772 209.248L160.443 209.318ZM158.118 130.994V206.827L131.014 206.837L132.936 124.96L158.118 130.994Z" fill="#337FEF"/>
<path d="M156.763 269.324V212.359L133.871 212.178V273.895L156.763 269.324Z" fill="#FCC9B9"/>
<path d="M132.767 275.343L157.919 270.355V211.126L132.767 210.961V275.343ZM155.607 268.295L134.974 272.44V213.401L155.607 213.589V268.295Z" fill="#1864D3"/>
<path d="M124.769 122.148V208.361L90.3749 209.229V113.128L124.769 122.148Z" fill="#60B5EF"/>
<path d="M125.854 209.535V121.15L89.3707 111.633V210.412L125.854 209.535ZM123.688 123.142V207.192L91.3837 208.047V114.626L123.688 123.142Z" fill="#3177DB"/>
<path d="M117.379 275.055V213.125L90.3748 214.677V279.878L117.379 275.055Z" fill="#5698D8"/>
<path d="M89.3707 281.228L118.447 276.073V211.874L89.3707 213.58V281.228ZM116.314 274.042L91.3838 278.527V215.779L116.314 214.378V274.042Z" fill="#2A78EA"/>
<path d="M81.7098 108.354V208.91L36.1537 209.166V96.5586L81.7098 108.354Z" fill="#5698D8"/>
<path d="M82.7007 210.052V107.386L35.2626 95.165V210.258L82.7007 210.052ZM80.7238 109.319V207.77L37.0472 208.071V97.9523L80.7238 109.319Z" fill="#1A65D3"/>
<path d="M72.8546 285.783V213.265L41.028 213.549V294.809L72.8546 285.783Z" fill="#67B2EF"/>
<path d="M40.1255 296.196L73.825 286.683V212.121L40.1255 212.463V296.196ZM71.8865 284.888L41.9327 293.422V214.636L71.8865 214.408V284.888Z" fill="#3585E5"/>
<path d="M78.1497 203.478C65.4448 203.267 53.0883 203.063 41.0642 202.864C41.175 169.917 41.2859 136.963 41.3967 104C53.3167 106.55 65.5624 109.167 78.1497 111.859C78.1497 142.397 78.1497 172.938 78.1497 203.478Z" fill="#FFC9B9"/>
<defs>
<linearGradient id="paint0_linear" x1="342.162" y1="218.741" x2="37.2473" y2="182.807" gradientUnits="userSpaceOnUse">
<stop stop-color="white"/>
<stop offset="1" stop-color="#7BBBF3"/>
</linearGradient>
<linearGradient id="paint1_linear" x1="628.61" y1="221.104" x2="271.841" y2="179.058" gradientUnits="userSpaceOnUse">
<stop stop-color="white"/>
<stop offset="1" stop-color="#7BBBF3"/>
</linearGradient>
<linearGradient id="paint2_linear" x1="345.162" y1="225.236" x2="30.9254" y2="188.203" gradientUnits="userSpaceOnUse">
<stop stop-color="white"/>
<stop offset="1" stop-color="#7BBBF3"/>
</linearGradient>
<linearGradient id="paint3_linear" x1="423.773" y1="256.428" x2="76.9837" y2="356.711" gradientUnits="userSpaceOnUse">
<stop stop-color="white"/>
<stop offset="1" stop-color="#7BBBF3"/>
</linearGradient>
<linearGradient id="paint4_linear" x1="432.83" y1="83.8338" x2="239.011" y2="83.8338" gradientUnits="userSpaceOnUse">
<stop stop-color="white"/>
<stop offset="1" stop-color="#7BBBF3"/>
</linearGradient>
<linearGradient id="paint5_linear" x1="421.914" y1="322.594" x2="643.001" y2="318.218" gradientUnits="userSpaceOnUse">
<stop stop-color="white" stop-opacity="0"/>
<stop offset="1" stop-color="#FB5700" stop-opacity="0.5"/>
</linearGradient>
<linearGradient id="paint6_linear" x1="508.11" y1="195.625" x2="426.358" y2="195.625" gradientUnits="userSpaceOnUse">
<stop stop-color="white"/>
<stop offset="1" stop-color="#BDF0F9"/>
</linearGradient>
<linearGradient id="paint7_linear" x1="391.213" y1="66.1934" x2="252.583" y2="66.1934" gradientUnits="userSpaceOnUse">
<stop stop-color="#DAEEF9"/>
<stop offset="1" stop-color="#59CDFA"/>
</linearGradient>
<linearGradient id="paint8_linear" x1="315.032" y1="114.198" x2="442.297" y2="198.237" gradientUnits="userSpaceOnUse">
<stop stop-color="#DAEEF9"/>
<stop offset="1" stop-color="#59CDFA"/>
</linearGradient>
<linearGradient id="paint9_linear" x1="345.367" y1="60.0955" x2="294.556" y2="60.0955" gradientUnits="userSpaceOnUse">
<stop stop-color="#808080"/>
<stop offset="1" stop-color="white"/>
</linearGradient>
<linearGradient id="paint10_linear" x1="345.367" y1="60.0955" x2="294.556" y2="60.0955" gradientUnits="userSpaceOnUse">
<stop stop-color="#DAEEF9"/>
<stop offset="1" stop-color="#59CDFA"/>
</linearGradient>
</defs>
</svg>
