<svg width="470" height="471" viewBox="0 0 470 471" fill="none" xmlns="http://www.w3.org/2000/svg">
<path d="M2.58954 304.49C10.0389 272.651 34.4007 247.66 65.4128 240.016C86.734 234.761 107.19 237.581 124.481 246.097C130.216 248.921 137.03 245.725 138.62 239.401C153.904 178.579 207.696 133.646 271.714 133.646C347.625 133.646 409.161 196.822 409.161 274.755C409.161 276.824 409.121 279.65 409.085 282.362C409.354 288.19 411.832 290.665 415.533 291.285C445.275 294.463 468.649 319.634 469.946 350.681C471.436 386.33 443.174 415.865 408.418 415.865H86.935C31.9024 415.863 -11.1876 363.367 2.58954 304.49Z" fill="url(#paint0_linear)"/>
<path opacity="0.21" d="M27.4884 316.421C34.1405 287.994 55.8907 265.678 83.5819 258.855C102.619 254.163 120.883 256.681 136.321 264.284C141.441 266.806 147.525 263.951 148.944 258.305C162.591 203.998 210.62 163.879 267.78 163.879C335.558 163.879 390.502 220.288 390.502 289.871C390.502 291.718 390.465 294.242 390.435 296.662C390.675 301.866 392.888 304.075 396.192 304.63C422.746 307.468 443.616 329.943 444.775 357.663C446.104 389.493 420.871 415.863 389.839 415.863H102.797C53.661 415.863 15.1876 368.99 27.4884 316.421Z" fill="#91B3FA"/>
<path d="M64.8149 454.002C64.8149 456.61 66.9484 458.745 69.5565 458.745H325.976C328.585 458.745 330.718 456.61 330.718 454.002L332.852 306.455C332.852 303.847 329.782 298.752 324.155 299.136L73.5532 292.643C70.2812 292.559 67.1173 293.819 64.7997 296.132C62.4821 298.445 61.2152 301.607 61.2912 304.88L64.8149 454.002Z" fill="url(#paint1_linear)"/>
<path d="M69.4957 449.45C69.4957 451.922 71.5143 453.943 73.9822 453.943H319.792C322.26 453.943 324.279 451.922 324.279 449.45L326.292 315.507C326.056 307.446 318.998 304.55 314.72 304.721L74.5414 298.269C72.2424 298.208 70.0194 299.094 68.391 300.719C66.7626 302.345 65.8673 304.571 65.9247 306.873L69.4957 449.45Z" fill="#787CD8"/>
<path d="M321.622 385.818C321.618 385.818 321.615 385.818 321.615 385.818C321.248 385.812 320.958 385.513 320.965 385.149L321.123 374.287C321.128 373.927 321.422 373.64 321.78 373.64C321.784 373.64 321.787 373.64 321.787 373.64C322.154 373.645 322.444 373.944 322.438 374.308L322.279 385.17C322.274 385.53 321.98 385.818 321.622 385.818Z" fill="white"/>
<path d="M322.012 359.199C322.012 359.199 322.005 359.199 322.002 359.199C321.639 359.194 321.348 358.894 321.355 358.531L321.965 316.926C321.953 314.455 321.204 312.481 319.738 311.076C317.002 308.451 312.655 308.584 312.473 308.593L235.707 306.531C235.344 306.522 235.058 306.218 235.067 305.856C235.077 305.492 235.356 305.183 235.742 305.217L312.463 307.279C312.941 307.25 317.568 307.17 320.649 310.127C322.382 311.789 323.267 314.081 323.28 316.935L322.671 358.553C322.664 358.909 322.372 359.199 322.012 359.199Z" fill="white"/>
<path d="M44.9667 470.993H345.365C345.891 470.993 346.32 470.564 346.32 470.038V458.986C346.32 458.46 345.891 458.031 345.365 458.031H44.9667C44.4414 458.031 44.0123 458.46 44.0123 458.986V470.038C44.0123 470.562 44.4414 470.993 44.9667 470.993Z" fill="url(#paint2_linear)"/>
<path d="M176.139 447.409H81.4959C78.006 447.409 75.1782 444.576 75.1782 441.083V317.386C75.1782 313.797 78.1563 310.927 81.7391 311.064L176.382 314.69C179.776 314.82 182.458 317.613 182.458 321.012V441.083C182.458 444.576 179.629 447.409 176.139 447.409Z" fill="#91B3FA"/>
<path opacity="0.51" d="M157.314 367.93H94.6243C94.126 367.93 93.724 367.525 93.724 367.028V360.489C93.724 359.99 94.1277 359.588 94.6243 359.588H157.314C157.813 359.588 158.215 359.992 158.215 360.489V367.028C158.216 367.525 157.813 367.93 157.314 367.93Z" fill="white"/>
<path opacity="0.51" d="M157.441 381.253H94.751C94.2527 381.253 93.8507 380.848 93.8507 380.351V373.812C93.8507 373.313 94.2544 372.911 94.751 372.911H157.441C157.939 372.911 158.341 373.315 158.341 373.812V380.351C158.343 380.848 157.939 381.253 157.441 381.253Z" fill="white"/>
<path opacity="0.51" d="M157.819 394.853H95.1293C94.631 394.853 94.229 394.449 94.229 393.951V387.413C94.229 386.914 94.6327 386.511 95.1293 386.511H157.819C158.318 386.511 158.72 386.915 158.72 387.413V393.951C158.72 394.449 158.318 394.853 157.819 394.853Z" fill="white"/>
<path opacity="0.51" d="M157.946 408.174H95.2561C94.7577 408.174 94.3557 407.77 94.3557 407.273V400.734C94.3557 400.235 94.7594 399.832 95.2561 399.832H157.946C158.444 399.832 158.846 400.237 158.846 400.734V407.273C158.846 407.772 158.444 408.174 157.946 408.174Z" fill="white"/>
<path opacity="0.51" d="M294.801 367.92H203.882C203.384 367.92 202.982 367.515 202.982 367.018V360.479C202.982 359.98 203.386 359.578 203.882 359.578H294.801C295.299 359.578 295.701 359.982 295.701 360.479V367.018C295.703 367.517 295.299 367.92 294.801 367.92Z" fill="white"/>
<path opacity="0.51" d="M295.088 381.253H204.169C203.671 381.253 203.269 380.848 203.269 380.351V373.812C203.269 373.313 203.673 372.911 204.169 372.911H295.088C295.586 372.911 295.988 373.315 295.988 373.812V380.351C295.988 380.848 295.584 381.253 295.088 381.253Z" fill="white"/>
<path opacity="0.51" d="M257.309 394.853H204.168C203.67 394.853 203.267 394.449 203.267 393.951V387.413C203.267 386.914 203.671 386.511 204.168 386.511H257.309C257.807 386.511 258.209 386.915 258.209 387.413V393.951C258.209 394.449 257.807 394.853 257.309 394.853Z" fill="white"/>
<g opacity="0.51">
<path opacity="0.51" d="M252.202 328.487H250.79C250.089 328.487 249.52 327.917 249.52 327.215V322.381C249.52 320.651 248.119 319.248 246.391 319.248H237.639C235.911 319.248 234.511 320.651 234.511 322.381V327.215C234.511 327.917 233.942 328.487 233.241 328.487H231.829C231.127 328.487 230.558 327.917 230.558 327.215V322.381C230.558 318.465 233.729 315.291 237.639 315.291H246.391C250.302 315.291 253.472 318.465 253.472 322.381V327.215C253.472 327.917 252.903 328.487 252.202 328.487Z" fill="white"/>
<path opacity="0.51" d="M253.952 329.627H230.077C228.614 329.627 227.428 330.814 227.428 332.279V350.625C227.428 352.09 228.614 353.277 230.077 353.277H253.952C255.415 353.277 256.601 352.09 256.601 350.625V332.279C256.601 330.816 255.415 329.627 253.952 329.627ZM245.432 347.359C245.58 347.976 245.112 348.572 244.477 348.572H239.555C238.92 348.572 238.452 347.978 238.601 347.359L239.749 342.571C238.393 341.759 237.506 340.242 237.597 338.525C237.714 336.301 239.514 334.481 241.734 334.342C244.307 334.182 246.442 336.223 246.442 338.765C246.442 340.382 245.575 341.798 244.283 342.571L245.432 347.359Z" fill="white"/>
</g>
<path d="M321.698 114.305C321.605 114.305 321.51 114.283 321.422 114.234C321.147 114.081 321.049 113.735 321.201 113.459C321.568 112.799 321.922 112.136 322.267 111.467C322.41 111.188 322.753 111.079 323.034 111.221C323.312 111.365 323.422 111.708 323.279 111.989C322.929 112.667 322.569 113.342 322.198 114.01C322.093 114.2 321.899 114.305 321.698 114.305Z" fill="#91B3FA"/>
<path d="M255.173 153.511C254.837 153.511 254.503 153.509 254.167 153.504C253.852 153.499 253.602 153.242 253.606 152.927C253.611 152.616 253.864 152.366 254.175 152.366H254.183C255.655 152.386 257.14 152.361 258.609 152.295C258.901 152.274 259.189 152.523 259.202 152.838C259.217 153.152 258.974 153.418 258.66 153.431C257.501 153.485 256.329 153.511 255.173 153.511ZM246.942 153.068C246.922 153.068 246.901 153.066 246.881 153.064C245.396 152.904 243.898 152.697 242.432 152.45C242.123 152.398 241.913 152.105 241.965 151.794C242.018 151.485 242.312 151.273 242.621 151.326C244.067 151.569 245.541 151.772 247.006 151.931C247.319 151.965 247.545 152.246 247.511 152.559C247.476 152.851 247.229 153.068 246.942 153.068ZM265.844 152.762C265.565 152.762 265.322 152.555 265.282 152.271C265.238 151.96 265.454 151.672 265.765 151.628C267.221 151.424 268.689 151.172 270.128 150.881C270.432 150.82 270.736 151.019 270.797 151.327C270.858 151.635 270.658 151.936 270.351 151.999C268.89 152.293 267.4 152.548 265.922 152.756C265.898 152.76 265.871 152.762 265.844 152.762ZM235.445 150.921C235.396 150.921 235.347 150.915 235.298 150.901C233.857 150.515 232.41 150.082 230.994 149.614C230.695 149.516 230.535 149.193 230.633 148.895C230.73 148.597 231.051 148.435 231.35 148.533C232.744 148.995 234.17 149.421 235.59 149.802C235.894 149.883 236.073 150.194 235.992 150.498C235.927 150.754 235.697 150.921 235.445 150.921ZM277.268 150.24C277.023 150.24 276.799 150.081 276.724 149.835C276.633 149.534 276.804 149.216 277.104 149.125C278.513 148.697 279.925 148.224 281.302 147.716C281.596 147.608 281.924 147.758 282.032 148.054C282.14 148.35 281.989 148.677 281.694 148.785C280.297 149.301 278.864 149.781 277.434 150.216C277.378 150.233 277.322 150.24 277.268 150.24ZM224.411 147.038C224.335 147.038 224.257 147.023 224.183 146.989C222.817 146.385 221.452 145.734 220.129 145.054C219.85 144.91 219.741 144.567 219.882 144.288C220.026 144.009 220.367 143.899 220.648 144.041C221.952 144.711 223.295 145.352 224.641 145.947C224.928 146.074 225.058 146.41 224.931 146.698C224.839 146.911 224.631 147.038 224.411 147.038ZM288.165 145.988C287.954 145.988 287.75 145.869 287.652 145.665C287.515 145.382 287.635 145.04 287.917 144.905C289.24 144.267 290.562 143.581 291.848 142.864C292.123 142.711 292.468 142.809 292.621 143.085C292.773 143.359 292.675 143.708 292.4 143.86C291.096 144.587 289.753 145.284 288.41 145.932C288.332 145.971 288.248 145.988 288.165 145.988ZM214.11 141.502C214.006 141.502 213.899 141.473 213.805 141.412C212.55 140.606 211.301 139.751 210.097 138.874C209.843 138.689 209.788 138.332 209.972 138.079C210.158 137.825 210.512 137.769 210.766 137.954C211.952 138.818 213.18 139.658 214.418 140.453C214.681 140.623 214.759 140.976 214.59 141.24C214.482 141.409 214.298 141.502 214.11 141.502ZM298.279 140.102C298.098 140.102 297.92 140.015 297.811 139.856C297.632 139.598 297.697 139.242 297.956 139.063C299.165 138.228 300.368 137.345 301.527 136.44C301.775 136.247 302.132 136.291 302.326 136.54C302.518 136.788 302.475 137.145 302.226 137.34C301.049 138.258 299.831 139.153 298.603 140.002C298.503 140.069 298.39 140.102 298.279 140.102ZM204.788 134.441C204.653 134.441 204.519 134.393 204.411 134.298C203.298 133.312 202.196 132.277 201.136 131.22C200.913 130.999 200.913 130.638 201.134 130.415C201.355 130.192 201.715 130.192 201.938 130.413C202.982 131.454 204.068 132.473 205.166 133.446C205.401 133.654 205.423 134.014 205.215 134.249C205.1 134.376 204.945 134.441 204.788 134.441ZM307.377 132.732C307.226 132.732 307.074 132.671 306.963 132.553C306.747 132.325 306.758 131.964 306.986 131.748C308.057 130.736 309.11 129.683 310.116 128.615C310.333 128.387 310.693 128.377 310.921 128.592C311.149 128.808 311.159 129.169 310.944 129.397C309.922 130.481 308.853 131.55 307.767 132.577C307.657 132.68 307.517 132.732 307.377 132.732ZM196.644 126.034C196.48 126.034 196.32 125.965 196.206 125.83C195.254 124.685 194.32 123.494 193.433 122.291C193.247 122.038 193.299 121.683 193.553 121.495C193.808 121.309 194.163 121.363 194.348 121.615C195.222 122.801 196.142 123.973 197.081 125.102C197.282 125.344 197.25 125.703 197.009 125.904C196.901 125.99 196.772 126.034 196.644 126.034ZM315.248 124.072C315.127 124.072 315.003 124.034 314.9 123.952C314.652 123.76 314.608 123.401 314.801 123.154C315.706 121.989 316.586 120.786 317.416 119.578C317.595 119.32 317.949 119.254 318.206 119.431C318.465 119.611 318.53 119.964 318.353 120.223C317.51 121.449 316.618 122.67 315.698 123.853C315.584 123.996 315.417 124.072 315.248 124.072ZM189.869 116.488C189.676 116.488 189.487 116.39 189.38 116.213C188.61 114.927 187.87 113.608 187.181 112.289C187.036 112.01 187.144 111.666 187.423 111.521C187.7 111.375 188.044 111.484 188.189 111.763C188.867 113.062 189.595 114.361 190.355 115.627C190.517 115.896 190.429 116.246 190.161 116.409C190.068 116.461 189.967 116.488 189.869 116.488ZM184.639 106.012C184.414 106.012 184.201 105.878 184.112 105.657C183.549 104.27 183.022 102.851 182.546 101.44C182.446 101.142 182.605 100.819 182.902 100.718C183.198 100.616 183.522 100.777 183.624 101.075C184.093 102.463 184.612 103.861 185.168 105.227C185.286 105.518 185.146 105.851 184.855 105.97C184.784 105.998 184.711 106.012 184.639 106.012Z" fill="#91B3FA"/>
<path d="M181.081 94.8219C180.823 94.8219 180.59 94.6443 180.529 94.3821C180.355 93.6362 180.191 92.8903 180.039 92.141C179.977 91.8332 180.176 91.5321 180.483 91.4696C180.791 91.407 181.091 91.6049 181.154 91.9144C181.304 92.6518 181.465 93.3876 181.637 94.1216C181.708 94.4278 181.519 94.7339 181.213 94.8067C181.167 94.8168 181.125 94.8219 181.081 94.8219Z" fill="#91B3FA"/>
<path d="M190.723 36.7552C190.62 36.7552 190.516 36.7265 190.421 36.6673C190.156 36.4999 190.076 36.148 190.244 35.8825C190.649 35.2381 191.066 34.5971 191.492 33.9611C191.668 33.7006 192.021 33.6296 192.281 33.8055C192.543 33.9814 192.61 34.3349 192.436 34.5954C192.016 35.2229 191.605 35.8537 191.205 36.4897C191.097 36.6605 190.912 36.7552 190.723 36.7552Z" fill="#91B3FA"/>
<path d="M328.169 55.8306C327.922 55.8306 327.696 55.6699 327.623 55.4213C327.189 53.9379 326.703 52.4478 326.177 50.9932C326.071 50.6973 326.223 50.3708 326.519 50.2643C326.813 50.156 327.14 50.3099 327.247 50.6059C327.78 52.0825 328.274 53.5946 328.716 55.1016C328.804 55.4044 328.632 55.7206 328.331 55.8086C328.275 55.8238 328.221 55.8306 328.169 55.8306ZM323.762 44.336C323.549 44.336 323.346 44.2176 323.248 44.0129C322.578 42.6159 321.856 41.2256 321.103 39.8775C320.949 39.6035 321.047 39.2568 321.323 39.1029C321.596 38.9507 321.944 39.0471 322.096 39.3228C322.86 40.6894 323.593 42.1017 324.274 43.5208C324.411 43.8049 324.291 44.1449 324.008 44.2802C323.927 44.3191 323.845 44.336 323.762 44.336ZM317.551 33.7108C317.372 33.7108 317.194 33.6262 317.084 33.4672C316.199 32.2021 315.263 30.9454 314.301 29.7344C314.105 29.4874 314.145 29.1305 314.392 28.9343C314.638 28.7381 314.995 28.7787 315.191 29.0257C316.169 30.257 317.12 31.5306 318.017 32.816C318.198 33.0731 318.135 33.4283 317.877 33.6093C317.777 33.677 317.664 33.7108 317.551 33.7108ZM196.527 28.7398C196.399 28.7398 196.271 28.6975 196.164 28.6079C195.923 28.4066 195.889 28.0481 196.09 27.8062C197.088 26.6036 198.139 25.4095 199.217 24.2611C199.431 24.031 199.791 24.0209 200.021 24.2357C200.249 24.4522 200.261 24.8125 200.046 25.0408C198.985 26.1723 197.948 27.3478 196.965 28.5335C196.852 28.6705 196.691 28.7398 196.527 28.7398ZM309.714 24.2222C309.566 24.2222 309.417 24.1647 309.306 24.0497C308.235 22.9435 307.111 21.8526 305.966 20.809C305.735 20.5976 305.718 20.2373 305.929 20.0039C306.14 19.7705 306.502 19.7536 306.733 19.9667C307.895 21.0272 309.035 22.135 310.122 23.2564C310.341 23.4814 310.334 23.8433 310.11 24.0615C310 24.1697 309.856 24.2222 309.714 24.2222ZM205.114 19.9278C204.955 19.9278 204.798 19.8618 204.686 19.7333C204.48 19.4965 204.504 19.1362 204.74 18.9299C205.924 17.8947 207.153 16.885 208.392 15.926C208.642 15.7349 208.999 15.7805 209.19 16.0292C209.381 16.2778 209.335 16.6364 209.087 16.8275C207.865 17.7713 206.654 18.7658 205.489 19.7857C205.381 19.8821 205.245 19.9278 205.114 19.9278ZM300.473 16.1087C300.355 16.1087 300.236 16.0714 300.133 15.997C298.893 15.0752 297.61 14.1805 296.316 13.3365C296.052 13.1657 295.978 12.8122 296.15 12.5483C296.321 12.2845 296.672 12.21 296.937 12.3826C298.25 13.2384 299.554 14.1467 300.812 15.082C301.064 15.2697 301.116 15.6266 300.929 15.8786C300.817 16.0292 300.647 16.1087 300.473 16.1087ZM214.995 12.5957C214.806 12.5957 214.62 12.5009 214.512 12.3267C214.347 12.0595 214.428 11.7094 214.695 11.5419C216.024 10.7132 217.399 9.91315 218.781 9.16556C219.058 9.01503 219.403 9.11989 219.551 9.39559C219.7 9.67297 219.597 10.018 219.322 10.1669C217.96 10.9026 216.605 11.6891 215.294 12.506C215.202 12.5669 215.099 12.5957 214.995 12.5957ZM290.044 9.59686C289.956 9.59686 289.866 9.57656 289.783 9.53428C288.412 8.82559 287 8.15242 285.586 7.52831C285.299 7.40145 285.167 7.06656 285.294 6.77734C285.419 6.4898 285.755 6.35788 286.044 6.48473C287.479 7.11561 288.914 7.80062 290.305 8.51945C290.584 8.66322 290.694 9.00657 290.55 9.28565C290.447 9.48354 290.25 9.59686 290.044 9.59686ZM225.93 6.95662C225.707 6.95662 225.496 6.8247 225.404 6.60651C225.284 6.31559 225.421 5.98239 225.712 5.8623C227.156 5.26187 228.643 4.69526 230.129 4.18277C230.428 4.08129 230.751 4.23858 230.852 4.53457C230.953 4.83226 230.796 5.157 230.501 5.25848C229.036 5.7642 227.573 6.32067 226.149 6.91265C226.077 6.94309 226.002 6.95662 225.93 6.95662ZM278.697 4.86101C278.64 4.86101 278.581 4.85255 278.521 4.83395C277.054 4.35698 275.55 3.92061 274.054 3.53497C273.75 3.45717 273.565 3.14596 273.645 2.84151C273.722 2.53706 274.038 2.35439 274.337 2.4322C275.856 2.8246 277.383 3.26774 278.873 3.75147C279.172 3.84788 279.336 4.16924 279.238 4.46861C279.16 4.70879 278.937 4.86101 278.697 4.86101ZM237.629 3.16964C237.371 3.16964 237.138 2.99204 237.077 2.73157C237.006 2.42543 237.195 2.11929 237.501 2.04656C239.03 1.6863 240.589 1.36832 242.131 1.10447C242.447 1.05373 242.734 1.26007 242.788 1.5696C242.842 1.87912 242.633 2.17342 242.323 2.22754C240.803 2.48801 239.269 2.80092 237.763 3.1561C237.715 3.16456 237.671 3.16964 237.629 3.16964ZM266.736 2.02119C266.707 2.02119 266.678 2.0195 266.65 2.01443C265.123 1.77933 263.569 1.58989 262.03 1.44951C261.717 1.42075 261.486 1.14337 261.515 0.830465C261.543 0.517561 261.814 0.285842 262.133 0.314596C263.694 0.456671 265.271 0.649488 266.82 0.887972C267.131 0.93533 267.344 1.22625 267.297 1.53746C267.255 1.81992 267.011 2.02119 266.736 2.02119ZM249.786 1.32265C249.491 1.32265 249.241 1.09263 249.221 0.793255C249.199 0.478659 249.435 0.206348 249.748 0.186051C251.308 0.0761119 252.896 0.013531 254.467 0H254.472C254.785 0 255.038 0.252015 255.042 0.564919C255.045 0.879515 254.792 1.1366 254.477 1.13999C252.93 1.15352 251.366 1.21441 249.829 1.32265C249.813 1.32265 249.8 1.32265 249.786 1.32265Z" fill="#91B3FA"/>
<path d="M330.331 65.5257C330.056 65.5257 329.814 65.3244 329.77 65.0436C329.656 64.2994 329.529 63.5586 329.389 62.8161C329.331 62.5066 329.534 62.2089 329.843 62.1514C330.15 62.0972 330.449 62.2985 330.507 62.6063C330.647 63.359 330.775 64.1117 330.894 64.866C330.943 65.1772 330.73 65.4681 330.419 65.5172C330.389 65.5223 330.36 65.5257 330.331 65.5257Z" fill="#91B3FA"/>
<path d="M313.579 75.0532C313.61 74.6642 313.39 74.2988 313.032 74.1432L302.838 69.7084C302.051 64.5717 300.439 59.523 297.983 54.7719L303.608 45.1818C303.806 44.8452 303.768 44.4207 303.515 44.1247L294.849 33.9798C294.596 33.6839 294.182 33.5807 293.821 33.7228L283.488 37.8023C279.18 34.6378 274.449 32.2614 269.503 30.6867L266.707 19.9161C266.609 19.5389 266.283 19.2649 265.895 19.2344L252.602 18.1976C252.214 18.1672 251.849 18.3871 251.694 18.7456L247.264 28.9531C242.134 29.7413 237.092 31.3548 232.347 33.8141L222.769 28.1801C222.433 27.9822 222.009 28.0194 221.714 28.2731L211.582 36.9516C211.286 37.2053 211.183 37.6197 211.325 37.9816L215.399 48.3278C212.239 52.6408 209.865 57.3766 208.293 62.3307L197.534 65.1299C197.158 65.228 196.884 65.5544 196.853 65.9434L195.818 79.2529C195.788 79.6419 196.007 80.0072 196.365 80.1628L206.56 84.5976C207.347 89.7343 208.958 94.7831 211.414 99.5341L205.788 109.124C205.59 109.461 205.627 109.885 205.881 110.181L214.548 120.326C214.801 120.622 215.215 120.725 215.577 120.582L225.91 116.502C230.215 119.667 234.948 122.043 239.894 123.618L242.69 134.388C242.788 134.765 243.114 135.039 243.503 135.07L256.795 136.107C257.183 136.137 257.548 135.917 257.704 135.559L262.133 125.351C267.263 124.563 272.305 122.95 277.05 120.49L286.628 126.124C286.964 126.322 287.388 126.285 287.684 126.031L297.816 117.353C298.111 117.099 298.214 116.686 298.072 116.323L293.998 105.977C297.159 101.664 299.53 96.926 301.105 91.9737L311.861 89.1745C312.238 89.0764 312.512 88.7499 312.542 88.3609L313.579 75.0532Z" fill="#91B3FA"/>
<path opacity="0.7" d="M254.673 89.8644C252.07 89.8644 249.536 89.0627 247.369 87.5269C241.656 83.4794 240.298 75.5334 244.34 69.8131C246.298 67.0427 249.217 65.2007 252.558 64.6291C255.9 64.0574 259.265 64.8219 262.03 66.7822C264.797 68.7442 266.636 71.6652 267.207 75.0107C267.78 78.3563 267.016 81.7255 265.057 84.4959C263.099 87.2664 260.18 89.1083 256.839 89.68C256.118 89.8035 255.393 89.8644 254.673 89.8644ZM254.724 66.1513C254.101 66.1513 253.474 66.2054 252.847 66.312C249.955 66.8076 247.428 68.4008 245.734 70.7992C242.234 75.7498 243.41 82.6287 248.354 86.1315C250.749 87.8296 253.66 88.4893 256.553 87.9954C259.445 87.4998 261.971 85.9066 263.667 83.5082C265.363 81.1098 266.023 78.1939 265.528 75.2983C265.033 72.4026 263.44 69.8723 261.045 68.1759C259.17 66.8464 256.976 66.1513 254.724 66.1513Z" fill="white"/>
<path opacity="0.7" d="M254.469 110.224C253.599 110.224 252.727 110.19 251.851 110.122C243.057 109.437 235.055 105.363 229.322 98.6496C224.158 92.6063 221.391 85.0763 221.391 77.2097C221.391 76.3386 221.425 75.4642 221.492 74.5881C222.178 65.7828 226.246 57.7707 232.95 52.0302C239.653 46.2897 248.187 43.5057 256.982 44.1907C265.776 44.8757 273.778 48.9502 279.511 55.6633C281.042 57.4545 282.381 59.408 283.493 61.4647L281.993 62.2766C280.941 60.3247 279.669 58.4727 278.216 56.7728C272.778 50.4082 265.19 46.5434 256.851 45.8939C248.511 45.2495 240.416 47.8847 234.06 53.3275C227.703 58.772 223.845 66.3697 223.195 74.72C223.131 75.5522 223.099 76.3809 223.099 77.2063C223.099 84.667 225.724 91.808 230.621 97.54C236.058 103.905 243.646 107.768 251.986 108.419C260.332 109.07 268.42 106.43 274.777 100.985C279.091 97.2897 282.319 92.5031 284.111 87.1415L285.729 87.6844C283.839 93.3387 280.435 98.3874 275.885 102.284C269.847 107.451 262.327 110.224 254.469 110.224Z" fill="white"/>
<path d="M385.844 132.996C385.746 132.996 385.646 132.971 385.555 132.917C385.285 132.756 385.195 132.407 385.356 132.137C385.737 131.491 386.104 130.831 386.442 130.175C386.585 129.896 386.928 129.788 387.209 129.93C387.487 130.073 387.597 130.417 387.454 130.697C387.106 131.372 386.729 132.052 386.335 132.717C386.227 132.898 386.038 132.996 385.844 132.996Z" fill="#91B3FA"/>
<path d="M349.14 152.055C349.125 152.055 349.11 152.055 349.095 152.053C347.553 151.931 346.002 151.718 344.49 151.419C344.183 151.358 343.982 151.058 344.042 150.749C344.103 150.441 344.404 150.24 344.71 150.301C346.181 150.591 347.686 150.8 349.184 150.918C349.497 150.943 349.732 151.217 349.706 151.53C349.683 151.828 349.434 152.055 349.14 152.055ZM356.578 151.934C356.293 151.934 356.046 151.72 356.014 151.429C355.978 151.116 356.203 150.835 356.516 150.8C358.012 150.632 359.511 150.375 360.967 150.035C361.271 149.961 361.578 150.153 361.649 150.461C361.72 150.767 361.531 151.074 361.223 151.145C359.723 151.495 358.181 151.759 356.641 151.933C356.62 151.933 356.598 151.934 356.578 151.934ZM337.47 149.296C337.399 149.296 337.326 149.282 337.255 149.254C335.826 148.672 334.414 147.999 333.059 147.251C332.784 147.099 332.684 146.752 332.836 146.478C332.988 146.202 333.333 146.103 333.608 146.255C334.924 146.98 336.296 147.635 337.684 148.2C337.975 148.318 338.115 148.651 337.997 148.942C337.907 149.162 337.694 149.296 337.47 149.296ZM368.149 148.785C367.931 148.785 367.723 148.66 367.629 148.449C367.501 148.161 367.629 147.824 367.916 147.696C369.288 147.082 370.636 146.38 371.925 145.61C372.193 145.448 372.543 145.538 372.705 145.807C372.865 146.077 372.778 146.426 372.509 146.588C371.183 147.381 369.793 148.103 368.382 148.736C368.305 148.77 368.227 148.785 368.149 148.785ZM327.196 143.117C327.068 143.117 326.938 143.073 326.833 142.985C325.65 141.998 324.51 140.925 323.444 139.799C323.228 139.571 323.238 139.21 323.465 138.994C323.693 138.777 324.052 138.787 324.269 139.014C325.304 140.108 326.412 141.149 327.561 142.109C327.802 142.311 327.835 142.669 327.634 142.911C327.52 143.048 327.358 143.117 327.196 143.117ZM378.213 142.258C378.058 142.258 377.901 142.194 377.789 142.069C377.58 141.834 377.6 141.473 377.835 141.265L378.17 140.963C379.17 140.049 380.132 139.073 381.029 138.065C381.237 137.828 381.597 137.808 381.832 138.018C382.067 138.228 382.088 138.586 381.879 138.821C380.957 139.86 379.967 140.864 378.936 141.805L378.594 142.114C378.482 142.211 378.349 142.258 378.213 142.258ZM319.267 134.112C319.079 134.112 318.895 134.019 318.787 133.85C317.954 132.548 317.189 131.181 316.513 129.788C316.377 129.505 316.495 129.164 316.777 129.027C317.061 128.89 317.4 129.008 317.537 129.29C318.193 130.643 318.936 131.971 319.745 133.236C319.914 133.5 319.838 133.854 319.573 134.023C319.478 134.084 319.372 134.112 319.267 134.112Z" fill="#91B3FA"/>
<path d="M314.431 123.103C314.179 123.103 313.949 122.934 313.882 122.679C313.686 121.938 313.508 121.182 313.356 120.431C313.294 120.123 313.492 119.822 313.801 119.759C314.108 119.697 314.409 119.895 314.471 120.204C314.62 120.933 314.792 121.669 314.981 122.388C315.062 122.692 314.882 123.004 314.578 123.085C314.527 123.097 314.478 123.103 314.431 123.103Z" fill="#91B3FA"/>
<path d="M319.115 92.2003C319.012 92.2003 318.907 92.1715 318.813 92.1123C318.547 91.9449 318.468 91.5931 318.635 91.3275C319.044 90.678 319.476 90.0336 319.921 89.4095C320.103 89.1541 320.46 89.0949 320.713 89.2776C320.97 89.4602 321.027 89.8154 320.845 90.0708C320.412 90.6763 319.992 91.3038 319.595 91.9347C319.488 92.1072 319.302 92.2003 319.115 92.2003Z" fill="#91B3FA"/>
<path d="M388.195 97.7378C387.974 97.7378 387.764 97.6076 387.671 97.3911C387.095 96.0312 386.431 94.69 385.7 93.4045C385.545 93.1322 385.641 92.7838 385.913 92.6282C386.185 92.4726 386.533 92.5673 386.688 92.8413C387.442 94.1639 388.124 95.5458 388.719 96.9463C388.842 97.2355 388.707 97.5704 388.416 97.6938C388.345 97.7243 388.269 97.7378 388.195 97.7378ZM381.991 87.6927C381.83 87.6927 381.67 87.6251 381.558 87.4932C381.268 87.1515 380.97 86.8149 380.666 86.48C379.972 85.7189 379.24 84.9764 378.489 84.2728C378.259 84.058 378.247 83.6977 378.462 83.4677C378.676 83.2377 379.036 83.2258 379.266 83.4406C380.038 84.1645 380.791 84.9274 381.506 85.7121C381.818 86.0555 382.126 86.4022 382.423 86.754C382.626 86.9942 382.597 87.3528 382.359 87.5574C382.252 87.6488 382.121 87.6927 381.991 87.6927ZM325.179 84.7717C325.029 84.7717 324.878 84.7125 324.767 84.5958C324.551 84.3675 324.559 84.0072 324.786 83.7907C325.015 83.5709 325.248 83.3527 325.485 83.1379C326.373 82.326 327.309 81.5463 328.265 80.819C328.515 80.6279 328.872 80.6769 329.061 80.9272C329.252 81.1776 329.203 81.5344 328.953 81.7239C328.024 82.4309 327.115 83.1886 326.252 83.9768C326.022 84.1865 325.796 84.3996 325.571 84.6128C325.461 84.7193 325.319 84.7717 325.179 84.7717ZM373.087 79.9429C372.984 79.9429 372.877 79.9141 372.784 79.8549C371.536 79.065 370.229 78.3394 368.899 77.7001C368.615 77.5631 368.497 77.2248 368.632 76.9407C368.767 76.6565 369.105 76.5364 369.391 76.6734C370.759 77.3314 372.105 78.0773 373.391 78.8908C373.656 79.06 373.735 79.4101 373.568 79.6773C373.46 79.8498 373.276 79.9429 373.087 79.9429ZM334.828 77.9758C334.618 77.9758 334.417 77.8608 334.318 77.6595C334.178 77.377 334.292 77.0354 334.574 76.8967C335.933 76.2202 337.35 75.6163 338.782 75.0988C339.08 74.9939 339.404 75.1461 339.51 75.4421C339.617 75.7381 339.463 76.0645 339.167 76.1711C337.774 76.6734 336.399 77.2603 335.08 77.9166C334.998 77.9572 334.914 77.9758 334.828 77.9758ZM362.281 75.2205C362.232 75.2205 362.183 75.2138 362.134 75.2019C360.708 74.8231 359.244 74.522 357.781 74.3089C357.47 74.2632 357.254 73.974 357.299 73.6645C357.345 73.3533 357.63 73.13 357.943 73.1824C359.448 73.4023 360.955 73.7101 362.424 74.1009C362.728 74.182 362.909 74.4933 362.828 74.7977C362.762 75.0514 362.533 75.2205 362.281 75.2205ZM346.066 74.3867C345.791 74.3867 345.549 74.1871 345.505 73.9063C345.456 73.5951 345.667 73.3042 345.978 73.2552C347.477 73.0184 349.007 72.8645 350.531 72.8002C350.845 72.7934 351.11 73.0302 351.122 73.3448C351.135 73.6594 350.892 73.925 350.578 73.9368C349.098 73.9994 347.612 74.1482 346.156 74.3782C346.125 74.385 346.095 74.3867 346.066 74.3867Z" fill="#91B3FA"/>
<path d="M390.829 106.979C390.553 106.979 390.312 106.778 390.268 106.497C390.153 105.762 390.016 105.019 389.859 104.292C389.793 103.984 389.987 103.681 390.295 103.615C390.607 103.549 390.905 103.746 390.971 104.052C391.131 104.801 391.273 105.565 391.391 106.322C391.44 106.633 391.227 106.924 390.917 106.973C390.886 106.976 390.857 106.979 390.829 106.979Z" fill="#91B3FA"/>
<path d="M382.224 111.597C382.239 111.397 382.127 111.21 381.943 111.13L376.707 108.852C376.303 106.213 375.475 103.619 374.213 101.18L377.104 96.2528C377.205 96.0803 377.186 95.8621 377.056 95.7099L372.605 90.4987C372.475 90.3465 372.262 90.2941 372.076 90.3668L366.769 92.4624C364.556 90.837 362.127 89.6158 359.585 88.8074L358.149 83.2749C358.098 83.0804 357.931 82.94 357.732 82.9248L350.904 82.392C350.705 82.3768 350.517 82.4901 350.438 82.6728L348.162 87.916C345.527 88.3203 342.938 89.1507 340.5 90.4125L335.58 87.5185C335.407 87.4171 335.189 87.4357 335.037 87.5659L329.833 92.0244C329.681 92.1546 329.628 92.3677 329.701 92.5538L331.794 97.8681C330.171 100.084 328.951 102.516 328.144 105.061L322.618 106.499C322.424 106.55 322.284 106.717 322.269 106.917L321.736 113.753C321.721 113.953 321.834 114.141 322.017 114.22L327.253 116.499C327.657 119.137 328.487 121.732 329.747 124.171L326.856 129.098C326.755 129.27 326.774 129.488 326.904 129.641L331.356 134.852C331.487 135.004 331.699 135.056 331.885 134.984L337.193 132.888C339.406 134.513 341.836 135.735 344.377 136.543L345.813 142.076C345.863 142.27 346.031 142.41 346.23 142.426L353.058 142.958C353.257 142.974 353.445 142.86 353.524 142.678L355.799 137.434C358.434 137.028 361.026 136.2 363.462 134.938L368.382 137.832C368.555 137.933 368.772 137.915 368.924 137.784L374.129 133.328C374.281 133.197 374.333 132.984 374.261 132.798L372.168 127.484C373.791 125.268 375.011 122.836 375.818 120.291L381.343 118.853C381.538 118.802 381.678 118.635 381.693 118.435L382.224 111.597Z" fill="#91B3FA"/>
<path opacity="0.7" d="M351.963 119.621C350.541 119.621 349.156 119.183 347.972 118.344C344.85 116.131 344.108 111.79 346.316 108.666C347.387 107.152 348.982 106.146 350.806 105.833C352.632 105.52 354.47 105.938 355.982 107.008C357.494 108.081 358.499 109.676 358.811 111.504C359.124 113.332 358.706 115.172 357.637 116.686C356.566 118.2 354.973 119.206 353.147 119.519C352.754 119.587 352.357 119.621 351.963 119.621ZM351.985 107.443C350.345 107.443 348.728 108.212 347.71 109.652C346.044 112.008 346.603 115.282 348.956 116.948C350.097 117.757 351.485 118.071 352.858 117.835C354.235 117.6 355.438 116.84 356.244 115.7C357.051 114.559 357.365 113.17 357.129 111.793C356.894 110.415 356.135 109.21 354.997 108.404C354.083 107.754 353.029 107.443 351.985 107.443Z" fill="white"/>
<path opacity="0.7" d="M351.862 130.079C351.404 130.079 350.945 130.06 350.483 130.024C345.855 129.664 341.646 127.52 338.627 123.988C335.83 120.715 334.461 116.693 334.463 112.688C334.463 107.774 336.524 102.89 340.537 99.4529C347.818 93.2151 358.811 94.0726 365.039 101.364C365.088 101.422 365.137 101.479 365.185 101.537C365.86 102.349 366.462 103.22 366.975 104.131C366.977 104.135 366.98 104.138 366.982 104.141C366.99 104.155 366.997 104.168 367.004 104.182C367.017 104.206 367.031 104.229 367.044 104.253C367.051 104.267 367.06 104.28 367.066 104.292C367.088 104.332 367.112 104.375 367.134 104.415L365.634 105.227C365.107 104.251 364.472 103.324 363.744 102.472C359.766 97.8173 353.635 96.0718 348.064 97.4435C345.767 98.0101 343.564 99.1061 341.646 100.748C338.027 103.849 336.169 108.253 336.167 112.684C336.167 116.296 337.402 119.924 339.923 122.875C345.539 129.449 355.453 130.224 362.021 124.599C364.179 122.75 365.794 120.355 366.691 117.671L368.31 118.214C367.315 121.19 365.524 123.846 363.129 125.896C359.953 128.619 355.995 130.079 351.862 130.079Z" fill="white"/>
<path d="M241.121 191.169C242.523 189.855 244.418 189.201 246.332 189.373C266.8 191.217 304.99 181.344 329.95 155.774C331.683 153.998 334.841 155.003 336.828 156.488C364.587 177.261 410.599 181.562 426.571 182.442C429.875 182.625 432.555 185.19 432.897 188.487C447.422 328.962 356.077 379.866 337.132 388.852C335.061 389.835 332.624 389.691 330.678 388.478C236.256 329.588 240.295 253.004 238.989 196.259C238.945 194.336 239.719 192.485 241.121 191.169Z" fill="url(#paint3_linear)"/>
<path opacity="0.61" d="M334.578 378.648C334.156 378.648 333.735 378.53 333.367 378.295C297.167 355.125 273.574 327.425 261.239 293.611C250.222 263.411 249.683 232.661 249.207 205.531L249.143 201.913C249.131 201.309 249.359 200.741 249.78 200.31C250.205 199.877 250.776 199.636 251.386 199.636H251.388C273.805 199.636 307.454 189.725 332.134 167.583C332.89 166.903 334.012 166.822 334.863 167.385C361.98 185.4 400.66 190.647 421.304 192.171C422.402 192.252 423.268 193.109 423.366 194.211C428.165 249.023 416.778 295.372 389.524 331.971C369.17 359.306 345.032 373.547 335.6 378.403C335.277 378.567 334.928 378.648 334.578 378.648ZM335.178 377.584L335.387 377.994L335.178 377.584C344.553 372.759 368.546 358.602 388.786 331.422C415.901 295.008 427.228 248.871 422.449 194.292C422.391 193.644 421.881 193.138 421.236 193.089C400.503 191.558 361.646 186.285 334.355 168.153C333.855 167.82 333.193 167.869 332.747 168.27C307.887 190.574 273.981 200.558 251.406 200.558C251.025 200.558 250.687 200.699 250.437 200.956C250.188 201.208 250.057 201.543 250.064 201.896L250.128 205.514C250.602 232.573 251.14 263.242 262.104 293.296C274.368 326.912 297.841 354.461 333.863 377.518C334.257 377.772 334.762 377.797 335.178 377.584Z" fill="white"/>
<path opacity="0.61" d="M367.583 244.198H363.313C361.193 244.198 359.474 242.477 359.474 240.353V225.74C359.474 220.508 355.239 216.268 350.014 216.268H323.556C318.331 216.268 314.096 220.508 314.096 225.74V240.353C314.096 242.476 312.378 244.198 310.257 244.198H305.986C303.866 244.198 302.147 242.477 302.147 240.353V225.74C302.147 213.902 311.731 204.305 323.554 204.305H350.012C361.835 204.305 371.42 213.902 371.42 225.74V240.353C371.423 242.477 369.703 244.198 367.583 244.198Z" fill="white"/>
<path opacity="0.61" d="M372.876 247.646H300.697C296.275 247.646 292.689 251.237 292.689 255.665V311.13C292.689 315.558 296.275 319.149 300.697 319.149H372.876C377.298 319.149 380.884 315.558 380.884 311.13V255.665C380.884 251.237 377.3 247.646 372.876 247.646ZM347.113 301.254C347.561 303.123 346.147 304.92 344.228 304.92H329.345C327.426 304.92 326.012 303.123 326.46 301.254L329.933 286.78C325.833 284.326 323.152 279.738 323.427 274.548C323.782 267.824 329.223 262.322 335.933 261.905C343.708 261.421 350.166 267.593 350.166 275.275C350.166 280.165 347.548 284.441 343.64 286.78L347.113 301.254Z" fill="white"/>
<path d="M60.1155 229.515C60.1155 229.515 65.9618 229.824 66.6781 241.867C66.6781 241.867 53.1222 254.034 34.8112 256.93C33.4361 257.148 36.7335 247.534 37.2284 246.232C39.5865 240.037 47.014 236.047 60.1155 229.515Z" fill="url(#paint4_linear)"/>
<path d="M125.952 215.356H113.616C113.616 215.356 75.7524 173.486 50.9194 169.263C50.9194 169.263 33.6337 191.357 51.84 232.639C53.3046 235.959 57.4009 237.435 60.4567 235.48C61.3705 234.895 62.0259 234.112 62.4246 233.131L60.96 197.882C60.96 197.882 93.2577 226.166 98.8709 231.624C104.486 237.082 133.022 233.755 125.952 215.356Z" fill="#7D97F4"/>
<path d="M6.68756 303.263C11.8565 298.727 20.0931 293.638 31.9851 292.18L36.0071 294.643C36.0071 294.643 33.4429 298.43 28.7587 302.43C24.453 304.933 17.8059 308.324 12.294 309.06C6.9325 309.774 6.14364 306.531 6.68756 303.263Z" fill="url(#paint5_linear)"/>
<path d="M37.23 246.232C40.4142 247.264 41.8162 251.781 49.8974 248.794C57.7151 245.904 63.5276 242.176 66.5175 240.026C66.5834 240.608 66.6408 241.217 66.6797 241.867C66.6797 241.867 52.3873 255.479 34.0763 258.374C32.7013 258.593 31.6117 257.218 32.1084 255.915C32.9952 253.579 34.5983 250.036 37.23 246.232Z" fill="#91B3FA"/>
<path d="M2.79223 307.137C3.81082 305.977 5.11151 304.645 6.68585 303.264C6.14193 306.533 6.93079 309.775 12.2906 309.06C17.8025 308.324 24.4512 304.933 28.7553 302.43C23.3583 307.037 15.1488 311.929 4.78549 311.641C2.48648 311.577 1.27194 308.867 2.79223 307.137Z" fill="#91B3FA"/>
<path d="M125.501 224.293L67.7322 224.919C67.7322 224.919 34.742 252.248 28.7571 293.922C28.7571 293.922 27.7638 296.987 33.7267 297.511C33.7267 297.511 53.6729 284.467 66.6781 261.405C82.6242 233.129 114.217 245.856 114.217 245.856C129.395 249.21 141.476 247.962 150.316 234.34L125.501 224.293Z" fill="#7D97F4"/>
<path d="M124.136 177.696C124.136 177.696 117.917 208.903 87.4469 221.249L76.6073 219.97L74.0498 224.053L99.4741 224.865C99.4741 224.865 121.207 216.246 132.721 192.761C133.103 191.985 139.444 178.875 124.136 177.696Z" fill="url(#paint6_linear)"/>
<path d="M120.804 223.782C120.804 223.782 127.876 204.534 129.395 185.831C129.395 185.831 124.221 181.38 120.988 179.458C119.94 178.836 119.545 177.52 120.074 176.422C122.452 171.49 136.829 152.127 137.907 151.857C143.762 150.394 167.77 138.963 184.679 162.123C191.936 172.062 183.24 202.657 150.317 234.343C139.723 236.07 129.819 233.014 120.804 223.782Z" fill="url(#paint7_linear)"/>
<path d="M148.054 190.048C148.054 190.048 128.405 213.343 103.285 216.748C103.285 216.748 96.7932 210.821 91.9655 212.937C87.1377 215.053 80.5177 224.393 80.5177 224.393H112.773C112.773 224.393 143.272 223.317 158.512 204.8C157.285 198.32 153.613 194.449 148.054 190.048Z" fill="url(#paint8_linear)"/>
<path d="M159.517 135.52L163.816 149.876C164.014 150.534 163.77 151.246 163.204 151.635C161.135 153.054 155.725 155.877 148.304 153.134C147.456 152.821 146.873 152.026 146.801 151.123L145.782 138.615L159.517 135.52Z" fill="url(#paint9_linear)"/>
<path d="M134.343 123.891C134.343 123.891 136.456 138.774 142.165 143.351C147.875 147.928 159 144.481 162.757 133.262L155.272 114.078L134.343 123.891Z" fill="url(#paint10_linear)"/>
<path d="M156.115 126.493C155.681 126.633 155.226 126.354 155.159 125.903C154.953 124.529 154.437 121.809 153.397 119.957C153.397 119.957 153.943 118.006 148.468 120.955C142.995 123.905 134.773 128.238 129.934 125.657C125.216 123.142 120.435 110.482 132.907 112.827C133.381 112.916 133.817 112.537 133.782 112.055C133.628 109.975 133.834 105.188 138.675 103.651C143.206 102.213 145.686 104.261 146.708 105.496C147.008 105.86 147.566 105.853 147.853 105.478C149.209 103.703 152.895 99.9281 158.321 102.321C162.791 104.294 163.485 107.051 163.411 108.767C163.387 109.324 163.951 109.701 164.456 109.467C165.824 108.837 168.027 108.508 170.135 111.154C173.051 114.812 168.885 117.984 167.635 118.814C167.431 118.951 167.302 119.176 167.301 119.423C167.289 121.326 166.993 129.622 162.84 134.304C162.48 134.71 161.816 134.589 161.606 134.091L158.409 126.461C158.26 126.107 157.867 125.925 157.5 126.043L156.115 126.493Z" fill="url(#paint11_linear)"/>
<path d="M156.047 128.042C156.047 128.042 158 120.078 160.966 122.664C163.932 125.25 160.193 130.94 156.796 132.025L156.047 128.042Z" fill="url(#paint12_linear)"/>
<path d="M82.1428 226.201L67.6612 177.841C67.07 175.869 65.32 174.469 63.2676 174.328L43.715 172.989C41.7268 172.853 40.2487 174.797 40.9092 176.679L57.0986 222.862C57.6205 224.351 58.9533 225.401 60.5209 225.56L79.7762 227.701L82.1428 226.201Z" fill="url(#paint13_linear)"/>
<path d="M55.433 194.232C56.5141 196.418 58.3823 197.698 59.6036 197.093C60.8249 196.487 60.9398 194.224 59.8587 192.039C58.7776 189.853 56.911 188.573 55.688 189.179C54.4667 189.784 54.3519 192.047 55.433 194.232Z" fill="#91B3FA"/>
<path d="M79.7744 227.7C79.8065 227.7 79.8369 227.7 79.869 227.696L120.896 225.619C121.91 225.568 122.692 224.704 122.64 223.688C122.589 222.671 121.721 221.873 120.711 221.942L79.6832 224.019C78.6697 224.07 77.8893 224.936 77.94 225.951C77.9906 226.935 78.8015 227.7 79.7744 227.7Z" fill="url(#paint14_linear)"/>
<path d="M129.395 186.115C129.238 186.115 129.111 185.989 129.111 185.831C129.082 177.16 132.415 165.682 132.449 165.567C132.493 165.416 132.65 165.33 132.802 165.374C132.952 165.418 133.039 165.577 132.995 165.728C132.961 165.841 129.652 177.241 129.68 185.83C129.68 185.987 129.554 186.115 129.395 186.115Z" fill="url(#paint15_linear)"/>
<path d="M148.054 190.334C147.993 190.334 147.931 190.313 147.878 190.273C147.755 190.175 147.735 189.997 147.831 189.874C147.921 189.76 156.838 178.408 159.89 170.665C159.948 170.519 160.112 170.443 160.258 170.504C160.404 170.562 160.476 170.727 160.419 170.873C157.336 178.695 148.366 190.112 148.277 190.225C148.221 190.297 148.138 190.334 148.054 190.334Z" fill="url(#paint16_linear)"/>
<path d="M160.696 207.787L159.074 205.49C158.983 205.362 159.014 205.184 159.142 205.093C159.27 205.001 159.448 205.032 159.539 205.16L160.895 207.082C173.549 201.527 181.384 186.369 181.461 186.217C181.532 186.077 181.703 186.021 181.843 186.093C181.983 186.164 182.039 186.337 181.966 186.477C181.887 186.633 173.877 202.138 160.907 207.699L160.696 207.787Z" fill="url(#paint17_linear)"/>
<defs>
<linearGradient id="paint0_linear" x1="37.8161" y1="33.7811" x2="402.206" y2="598.49" gradientUnits="userSpaceOnUse">
<stop stop-color="#1B325F"/>
<stop offset="1" stop-color="#4042E2"/>
</linearGradient>
<linearGradient id="paint1_linear" x1="221.187" y1="447.402" x2="160.486" y2="265.533" gradientUnits="userSpaceOnUse">
<stop stop-color="#09005D"/>
<stop offset="1" stop-color="#1A0F91"/>
</linearGradient>
<linearGradient id="paint2_linear" x1="80.2808" y1="436.53" x2="349.974" y2="502.047" gradientUnits="userSpaceOnUse">
<stop stop-color="#09005D"/>
<stop offset="1" stop-color="#1A0F91"/>
</linearGradient>
<linearGradient id="paint3_linear" x1="425.515" y1="570.393" x2="147.334" y2="547.753" gradientUnits="userSpaceOnUse">
<stop stop-color="#FB5700"/>
<stop offset="0.432292" stop-color="#FC510A"/>
<stop offset="1" stop-color="#FF007A"/>
</linearGradient>
<linearGradient id="paint4_linear" x1="54.2087" y1="240.961" x2="32.9878" y2="263.097" gradientUnits="userSpaceOnUse">
<stop stop-color="#09005D"/>
<stop offset="1" stop-color="#1A0F91"/>
</linearGradient>
<linearGradient id="paint5_linear" x1="26.0955" y1="296.59" x2="-14.0268" y2="326" gradientUnits="userSpaceOnUse">
<stop stop-color="#09005D"/>
<stop offset="1" stop-color="#1A0F91"/>
</linearGradient>
<linearGradient id="paint6_linear" x1="90.8597" y1="187.716" x2="118.115" y2="220.086" gradientUnits="userSpaceOnUse">
<stop stop-color="#FEBBBA"/>
<stop offset="1" stop-color="#FF928E"/>
</linearGradient>
<linearGradient id="paint7_linear" x1="183.991" y1="301.905" x2="88.2302" y2="294.679" gradientUnits="userSpaceOnUse">
<stop stop-color="#FB5700"/>
<stop offset="0.432292" stop-color="#FC510A"/>
<stop offset="1" stop-color="#FF007A"/>
</linearGradient>
<linearGradient id="paint8_linear" x1="122.593" y1="217.2" x2="68.1043" y2="142.752" gradientUnits="userSpaceOnUse">
<stop stop-color="#FEBBBA"/>
<stop offset="1" stop-color="#FF928E"/>
</linearGradient>
<linearGradient id="paint9_linear" x1="155.87" y1="155.45" x2="153.861" y2="137.394" gradientUnits="userSpaceOnUse">
<stop stop-color="#FEBBBA"/>
<stop offset="1" stop-color="#FF928E"/>
</linearGradient>
<linearGradient id="paint10_linear" x1="145.183" y1="139.699" x2="154.035" y2="110.539" gradientUnits="userSpaceOnUse">
<stop stop-color="#FEBBBA"/>
<stop offset="1" stop-color="#FF928E"/>
</linearGradient>
<linearGradient id="paint11_linear" x1="153.152" y1="86.1452" x2="144.921" y2="133.035" gradientUnits="userSpaceOnUse">
<stop stop-color="#09005D"/>
<stop offset="1" stop-color="#1A0F91"/>
</linearGradient>
<linearGradient id="paint12_linear" x1="154.33" y1="142.477" x2="163.183" y2="113.317" gradientUnits="userSpaceOnUse">
<stop stop-color="#FEBBBA"/>
<stop offset="1" stop-color="#FF928E"/>
</linearGradient>
<linearGradient id="paint13_linear" x1="82.1427" y1="200.341" x2="40.7488" y2="200.341" gradientUnits="userSpaceOnUse">
<stop stop-color="#09005D"/>
<stop offset="1" stop-color="#1A0F91"/>
</linearGradient>
<linearGradient id="paint14_linear" x1="77.1186" y1="218.459" x2="110.223" y2="227.521" gradientUnits="userSpaceOnUse">
<stop stop-color="#09005D"/>
<stop offset="1" stop-color="#1A0F91"/>
</linearGradient>
<linearGradient id="paint15_linear" x1="138.389" y1="62.0451" x2="125.561" y2="259.336" gradientUnits="userSpaceOnUse">
<stop stop-color="#E1473D"/>
<stop offset="1" stop-color="#E9605A"/>
</linearGradient>
<linearGradient id="paint16_linear" x1="161.683" y1="63.5595" x2="148.855" y2="260.851" gradientUnits="userSpaceOnUse">
<stop stop-color="#E1473D"/>
<stop offset="1" stop-color="#E9605A"/>
</linearGradient>
<linearGradient id="paint17_linear" x1="179.015" y1="64.6864" x2="166.187" y2="261.978" gradientUnits="userSpaceOnUse">
<stop stop-color="#E1473D"/>
<stop offset="1" stop-color="#E9605A"/>
</linearGradient>
</defs>
</svg>
