<svg width="470" height="470" viewBox="0 0 470 470"  fill="none" xmlns="http://www.w3.org/2000/svg">
<mask id="mask0" mask-type="alpha" maskUnits="userSpaceOnUse" x="0" y="0" width="470" height="470">
<circle cx="235" cy="235" r="235" fill="#1B325F"/>
</mask>
<g mask="url(#mask0)">
</g>
<g clip-path="url(#clip0)">
<path d="M286.501 208.771C288.614 207.814 291.139 207.509 293.237 208.495C295.547 209.583 296.949 212.051 297.477 214.55C298.321 218.549 297.231 222.842 294.866 226.171C292.497 229.5 288.934 231.887 285.054 233.16C283.578 233.644 281.67 233.856 280.725 232.617C280.175 231.89 280.164 230.904 280.175 229.991C280.238 225.274 280.275 220.556 280.368 215.838C280.443 212.171 283.247 210.242 286.501 208.771Z" fill="#EBBB9B"/>
<path d="M190.03 459.716L212.774 423.783L270.56 392.305L256.899 286.787L169.552 322.041L162.013 384.243L145.261 439.873L190.03 459.716Z" fill="#EBBB9B"/>
<path d="M270.668 399.856H190.581C182.785 399.856 176.447 393.507 176.447 385.706V197.66C176.447 189.855 182.789 183.51 190.581 183.51H270.668C278.46 183.51 284.802 189.859 284.802 197.66V385.706C284.802 393.511 278.464 399.856 270.668 399.856Z" fill="white"/>
<path d="M270.668 400.787H190.581C182.276 400.787 175.518 394.021 175.518 385.706V197.66C175.518 189.345 182.276 182.58 190.581 182.58H270.668C278.973 182.58 285.731 189.345 285.731 197.66V385.706C285.731 394.021 278.973 400.787 270.668 400.787ZM190.581 184.438C183.298 184.438 177.377 190.369 177.377 197.656V385.703C177.377 392.993 183.302 398.921 190.581 398.921H270.668C277.951 398.921 283.872 392.99 283.872 385.703V197.66C283.872 190.369 277.947 184.441 270.668 184.441H190.581V184.438Z" fill="#0D353D"/>
<path d="M244.749 204.154H216.504C216.363 204.154 216.244 204.269 216.244 204.414V207.095C216.244 207.237 216.359 207.356 216.504 207.356H244.749C244.89 207.356 245.009 207.241 245.009 207.095V204.414C245.009 204.269 244.89 204.154 244.749 204.154Z" fill="#8DB6D1"/>
<path d="M277.344 213.924H183.905V358.655H277.344V213.924Z" fill="#1B325F"/>
<path d="M260.95 275.43L251.849 268.828C251.852 268.798 251.852 268.765 251.852 268.735V260.681C251.852 260.022 251.317 259.486 250.658 259.486H245.779C245.12 259.486 244.585 260.022 244.585 260.681V263.563L231.318 255.475C230.902 255.174 230.336 255.174 229.92 255.475L200.295 275.434C199.764 275.821 199.645 276.569 200.031 277.102L201.947 279.749C202.334 280.282 203.081 280.401 203.613 280.014L208.043 276.8V306.95C208.043 307.609 208.578 308.145 209.237 308.145H219.245C219.788 308.145 220.231 307.702 220.231 307.158V281.551C220.231 280.244 221.291 279.183 222.596 279.183H238.645C239.951 279.183 241.011 280.244 241.011 281.551V307.158C241.011 307.702 241.453 308.145 241.996 308.145H252.005C252.663 308.145 253.199 307.609 253.199 306.95V276.8L257.628 280.014C258.16 280.401 258.908 280.282 259.295 279.749L261.21 277.102C261.604 276.562 261.485 275.817 260.95 275.43Z" fill="white"/>
<path d="M239.285 368.939H221.964C221.432 368.939 221.001 369.371 221.001 369.904V379.741C221.001 380.274 221.432 380.706 221.964 380.706H239.285C239.817 380.706 240.248 380.274 240.248 379.741V369.904C240.248 369.371 239.817 368.939 239.285 368.939Z" fill="#8DB6D1"/>
<path d="M139.357 133.076C153.432 118.985 153.432 96.1403 139.357 82.0499C125.283 67.9594 102.464 67.9594 88.3895 82.0499C74.3152 96.1403 74.3152 118.985 88.3895 133.076C102.464 147.166 125.283 147.166 139.357 133.076Z" fill="#93A8D4"/>
<path opacity="0.2" d="M113.874 71.4802V143.642C133.78 143.642 149.914 127.49 149.914 107.561C149.914 87.6329 133.78 71.4802 113.874 71.4802Z" fill="#93A8D4"/>
<path d="M107.867 111.225L107.343 110.957C102.534 108.507 99.5471 103.633 99.5471 98.2375V94.1342H128.041V98.2375C128.041 103.633 125.054 108.507 120.245 110.957L119.721 111.225V103.726C119.721 100.453 117.061 97.7907 113.792 97.7907C110.523 97.7907 107.863 100.453 107.863 103.726V111.225H107.867ZM100.269 94.8528V98.2375C100.269 103.164 102.887 107.628 107.146 110.034V103.726C107.146 100.055 110.129 97.0683 113.796 97.0683C117.463 97.0683 120.446 100.055 120.446 103.726V110.034C124.704 107.628 127.323 103.164 127.323 98.2375V94.8528H100.269Z" fill="white"/>
<path d="M131.585 89.8558H96.0027V92.0527H131.585V89.8558Z" fill="white"/>
<path d="M113.796 98.5131C110.925 98.5131 108.589 100.851 108.589 103.726V111.128C110.196 111.78 111.955 112.141 113.796 112.141C115.637 112.141 117.392 111.78 119.003 111.128V103.726C118.999 100.851 116.667 98.5131 113.796 98.5131ZM113.796 108.191C111.36 108.191 109.385 106.213 109.385 103.774C109.385 101.336 111.36 99.3583 113.796 99.3583C116.232 99.3583 118.207 101.336 118.207 103.774C118.203 106.213 116.232 108.191 113.796 108.191Z" fill="white"/>
<path d="M113.796 99.9467C111.683 99.9467 109.972 101.659 109.972 103.774C109.972 105.889 111.683 107.602 113.796 107.602C115.908 107.602 117.619 105.889 117.619 103.774C117.619 101.663 115.908 99.9467 113.796 99.9467ZM113.796 105.565C112.81 105.565 112.011 104.765 112.011 103.778C112.011 102.791 112.81 101.991 113.796 101.991C114.781 101.991 115.581 102.791 115.581 103.778C115.581 104.765 114.781 105.565 113.796 105.565Z" fill="white"/>
<path d="M114.242 103.774C114.242 103.525 114.041 103.328 113.796 103.328C113.547 103.328 113.35 103.529 113.35 103.774C113.35 104.02 113.55 104.221 113.796 104.221C114.041 104.225 114.242 104.024 114.242 103.774Z" fill="white"/>
<path d="M113.796 117.857C114.737 117.857 115.503 117.09 115.503 116.148C115.503 115.206 114.737 114.439 113.796 114.439C112.855 114.439 112.089 115.206 112.089 116.148C112.089 117.09 112.855 117.857 113.796 117.857Z" fill="white"/>
<path d="M113.796 126.581C117.761 126.581 121.327 124.377 123.109 120.825C123.299 120.448 123.146 119.987 122.77 119.797C122.588 119.704 122.38 119.689 122.187 119.756C121.993 119.819 121.837 119.957 121.744 120.139C120.223 123.17 117.18 125.051 113.796 125.051C110.415 125.051 107.369 123.167 105.848 120.139C105.717 119.879 105.453 119.719 105.163 119.719C105.044 119.719 104.929 119.745 104.821 119.801C104.639 119.894 104.501 120.05 104.438 120.244C104.375 120.437 104.39 120.646 104.479 120.828C106.261 124.373 109.831 126.581 113.796 126.581Z" fill="white"/>
<path d="M113.796 120.758C112.044 120.758 110.467 119.782 109.682 118.214C109.589 118.032 109.433 117.894 109.24 117.831C109.046 117.768 108.838 117.782 108.656 117.872C108.473 117.965 108.336 118.121 108.273 118.315C108.209 118.509 108.224 118.717 108.314 118.899C109.362 120.988 111.464 122.288 113.796 122.288C116.128 122.288 118.229 120.988 119.278 118.899C119.468 118.523 119.315 118.062 118.936 117.872C118.828 117.816 118.713 117.79 118.594 117.79C118.304 117.79 118.04 117.95 117.909 118.211C117.121 119.782 115.548 120.758 113.796 120.758Z" fill="white"/>
<path d="M100.269 353.14C116.827 353.14 130.25 339.702 130.25 323.125C130.25 306.548 116.827 293.109 100.269 293.109C83.7105 293.109 70.2875 306.548 70.2875 323.125C70.2875 339.702 83.7105 353.14 100.269 353.14Z" fill="#93A8D4"/>
<path opacity="0.2" d="M100.269 293.113V353.14C116.827 353.14 130.25 339.702 130.25 323.125C130.25 306.548 116.827 293.113 100.269 293.113Z" fill="#93A8D4"/>
<path d="M117.865 328.777H83.5504V328.985H117.865V328.777Z" fill="white"/>
<path d="M117.865 327.463H83.5504V327.671H117.865V327.463Z" fill="white"/>
<path d="M117.865 326.145H83.5504V326.353H117.865V326.145Z" fill="white"/>
<path d="M120.881 330.814H79.6563C78.5591 330.814 77.6665 329.92 77.6665 328.822V317.431C77.6665 316.333 78.5591 315.439 79.6563 315.439H120.885C121.982 315.439 122.875 316.333 122.875 317.431V328.822C122.875 329.92 121.982 330.814 120.881 330.814ZM79.6563 316.065C78.905 316.065 78.2913 316.679 78.2913 317.431V328.822C78.2913 329.574 78.9013 330.188 79.6563 330.188H120.885C121.636 330.188 122.25 329.574 122.25 328.822V317.431C122.25 316.679 121.64 316.065 120.885 316.065H79.6563Z" fill="white"/>
<path d="M100.269 309.284C99.4504 309.284 98.7847 309.951 98.7847 310.77C98.7847 311.589 99.4504 312.256 100.269 312.256C101.087 312.256 101.753 311.589 101.753 310.77C101.756 309.951 101.087 309.284 100.269 309.284Z" fill="white"/>
<path d="M100.269 301.703C96.8209 301.703 93.719 303.621 92.168 306.711C92.0044 307.039 92.1346 307.441 92.4656 307.605C92.6255 307.683 92.804 307.698 92.9751 307.642C93.1425 307.586 93.2801 307.467 93.3619 307.307C94.6823 304.671 97.3304 303.036 100.272 303.036C103.214 303.036 105.862 304.675 107.183 307.307C107.298 307.534 107.525 307.676 107.778 307.676C107.882 307.676 107.982 307.653 108.075 307.605C108.235 307.527 108.351 307.389 108.41 307.218C108.466 307.05 108.455 306.868 108.373 306.708C106.818 303.621 103.716 301.703 100.269 301.703Z" fill="white"/>
<path d="M100.269 306.767C101.79 306.767 103.162 307.616 103.847 308.979C103.925 309.139 104.062 309.255 104.233 309.314C104.401 309.37 104.583 309.355 104.739 309.277C104.899 309.199 105.018 309.061 105.074 308.89C105.13 308.722 105.119 308.54 105.037 308.38C104.126 306.562 102.299 305.434 100.269 305.434C98.2417 305.434 96.4118 306.562 95.5006 308.38C95.3369 308.707 95.4671 309.109 95.7981 309.273C95.8911 309.322 95.9915 309.344 96.0957 309.344C96.3486 309.344 96.5754 309.202 96.6907 308.975C97.3751 307.613 98.7475 306.767 100.269 306.767Z" fill="white"/>
<path d="M88.9136 333.994H88.4971V341.061H88.9136V333.994Z" fill="white"/>
<path d="M96.6237 333.994H96.2072V341.061H96.6237V333.994Z" fill="white"/>
<path d="M104.33 333.994H103.914V341.061H104.33V333.994Z" fill="white"/>
<path d="M112.04 333.994H111.624V341.061H112.04V333.994Z" fill="white"/>
<path d="M264.849 125.164C276.697 113.303 276.697 94.072 264.849 82.2107C253.001 70.3495 233.792 70.3495 221.944 82.2107C210.097 94.072 210.097 113.303 221.944 125.164C233.792 137.025 253.001 137.025 264.849 125.164Z" fill="#93A8D4"/>
<path opacity="0.2" d="M243.398 73.3159V134.058C260.154 134.058 273.737 120.46 273.737 103.685C273.737 86.9105 260.154 73.3159 243.398 73.3159Z" fill="#93A8D4"/>
<path d="M253.853 90.1202C253.188 89.4537 252.102 89.4537 251.436 90.1202C250.77 90.7867 250.77 91.874 251.436 92.5405C252.102 93.207 253.188 93.207 253.853 92.5405C254.519 91.874 254.519 90.7867 253.853 90.1202Z" fill="white"/>
<path d="M260.012 83.954C257.208 81.1465 253.128 80.1821 249.36 81.4295C248.959 81.5635 248.743 81.9954 248.873 82.3976C248.936 82.5912 249.074 82.7476 249.256 82.8407C249.439 82.9338 249.647 82.9487 249.84 82.8817C253.054 81.813 256.539 82.6396 258.93 85.0339C261.322 87.4281 262.144 90.9133 261.08 94.1342C260.987 94.4097 261.061 94.7114 261.266 94.9162C261.351 95.0018 261.452 95.0614 261.567 95.1023C261.761 95.1656 261.969 95.1507 262.151 95.0614C262.333 94.9683 262.471 94.8119 262.534 94.6183C263.78 90.8463 262.817 86.7616 260.012 83.954Z" fill="white"/>
<path d="M255.899 88.0723C257.137 89.3122 257.565 91.1181 257.011 92.7826C256.948 92.9762 256.963 93.1847 257.052 93.3671C257.145 93.5496 257.301 93.6874 257.494 93.7507C257.688 93.814 257.896 93.7991 258.078 93.7097C258.261 93.6166 258.398 93.4602 258.461 93.2666C259.198 91.0474 258.629 88.642 256.977 86.9887C255.326 85.3355 252.927 84.7695 250.707 85.503C250.305 85.6371 250.089 86.069 250.223 86.4711C250.26 86.5866 250.324 86.6871 250.409 86.7727C250.614 86.9775 250.915 87.052 251.19 86.9589C252.86 86.4041 254.66 86.8323 255.899 88.0723Z" fill="white"/>
<path d="M246.221 103.305C246.221 101.749 244.957 100.483 243.402 100.483C241.847 100.483 240.583 101.749 240.583 103.305C240.583 104.739 241.658 105.923 243.041 106.102V110.536H243.763V106.102C245.146 105.923 246.221 104.739 246.221 103.305ZM243.398 105.405C242.242 105.405 241.301 104.463 241.301 103.305C241.301 102.147 242.242 101.205 243.398 101.205C244.555 101.205 245.496 102.147 245.496 103.305C245.5 104.463 244.559 105.405 243.398 105.405Z" fill="white"/>
<path d="M243.759 86.5382H243.038V90.2394H243.759V86.5382Z" fill="white"/>
<path d="M257.803 100.595H254.106V101.317H257.803V100.595Z" fill="white"/>
<path d="M232.694 100.595H228.997V101.317H232.694V100.595Z" fill="white"/>
<path d="M235.587 108.273L232.972 110.89L233.482 111.401L236.097 108.783L235.587 108.273Z" fill="white"/>
<path d="M251.223 108.281L250.713 108.792L253.327 111.409L253.837 110.898L251.223 108.281Z" fill="white"/>
<path d="M233.471 90.5064L232.96 91.0172L235.575 93.6343L236.085 93.1235L233.471 90.5064Z" fill="white"/>
<path d="M245.195 120.832H241.602C241.36 120.832 241.133 120.702 240.977 120.478L240.668 120.043H246.128L245.823 120.478C245.663 120.705 245.437 120.832 245.195 120.832Z" fill="white"/>
<path d="M246.958 116.375H239.843C239.478 116.375 239.184 116.081 239.184 115.716V115.679C239.184 115.314 239.478 115.02 239.843 115.02H246.958C247.322 115.02 247.616 115.314 247.616 115.679V115.716C247.616 116.077 247.322 116.375 246.958 116.375Z" fill="white"/>
<path d="M246.958 118.051H239.843C239.478 118.051 239.184 117.756 239.184 117.391V117.354C239.184 116.989 239.478 116.695 239.843 116.695H246.958C247.322 116.695 247.616 116.989 247.616 117.354V117.391C247.616 117.753 247.322 118.051 246.958 118.051Z" fill="white"/>
<path d="M246.958 119.726H239.843C239.478 119.726 239.184 119.432 239.184 119.067V119.03C239.184 118.665 239.478 118.371 239.843 118.371H246.958C247.322 118.371 247.616 118.665 247.616 119.03V119.067C247.616 119.432 247.322 119.726 246.958 119.726Z" fill="white"/>
<path d="M245.094 114.513H241.706C240.122 114.513 238.831 113.221 238.831 111.635V110.268C238.831 109.285 238.389 108.347 237.611 107.699C235.551 105.971 234.372 103.443 234.375 100.755C234.383 95.7763 238.429 91.7288 243.402 91.7288C248.379 91.7288 252.429 95.7837 252.429 100.766C252.429 103.462 251.239 105.994 249.167 107.718C248.408 108.351 247.973 109.278 247.973 110.265V111.631C247.969 113.221 246.679 114.513 245.094 114.513ZM243.398 92.4512C238.824 92.4512 235.097 96.1747 235.093 100.755C235.089 103.227 236.176 105.554 238.072 107.144C239.01 107.93 239.549 109.069 239.549 110.268V111.635C239.549 112.826 240.516 113.791 241.702 113.791H245.091C246.281 113.791 247.244 112.823 247.244 111.635V110.268C247.244 109.066 247.776 107.934 248.698 107.167C250.606 105.58 251.7 103.249 251.7 100.77C251.704 96.1822 247.981 92.4512 243.398 92.4512Z" fill="white"/>
<path d="M377.126 333.476C397.03 333.476 413.166 317.322 413.166 297.395C413.166 277.468 397.03 261.314 377.126 261.314C357.221 261.314 341.086 277.468 341.086 297.395C341.086 317.322 357.221 333.476 377.126 333.476Z" fill="#93A8D4"/>
<path opacity="0.2" d="M377.126 261.314V333.476C397.031 333.476 413.166 317.323 413.166 297.395C413.162 277.467 397.028 261.314 377.126 261.314Z" fill="#93A8D4"/>
<path d="M394.171 309.474H360.077V290.335H394.171V309.474ZM360.315 309.232H393.93V290.574H360.315V309.232Z" fill="white"/>
<path d="M394.294 310.837H359.958V288.972H394.294V310.837ZM360.437 310.353H393.814V289.453H360.437V310.353Z" fill="white"/>
<path d="M383.08 312.204H371.171V313.54H383.08V312.204Z" fill="white"/>
<path d="M377.126 282.966C376.185 282.966 375.418 283.733 375.418 284.675C375.418 285.618 376.185 286.385 377.126 286.385C378.067 286.385 378.833 285.618 378.833 284.675C378.833 283.733 378.067 282.966 377.126 282.966Z" fill="white"/>
<path d="M377.126 274.246C373.161 274.246 369.594 276.45 367.813 280.002C367.623 280.378 367.775 280.84 368.151 281.03C368.333 281.123 368.542 281.138 368.735 281.071C368.928 281.008 369.085 280.87 369.178 280.688C370.699 277.657 373.741 275.776 377.126 275.776C380.507 275.776 383.553 277.66 385.074 280.688C385.204 280.948 385.468 281.108 385.758 281.108C385.877 281.108 385.992 281.082 386.1 281.026C386.283 280.933 386.42 280.777 386.483 280.583C386.547 280.39 386.532 280.181 386.443 279.999C384.657 276.454 381.087 274.246 377.126 274.246Z" fill="white"/>
<path d="M377.126 280.069C378.878 280.069 380.455 281.045 381.239 282.613C381.332 282.795 381.488 282.933 381.682 282.996C381.875 283.059 382.084 283.044 382.266 282.955C382.448 282.862 382.586 282.706 382.649 282.512C382.712 282.318 382.697 282.11 382.608 281.927C381.559 279.839 379.458 278.539 377.126 278.539C374.794 278.539 372.692 279.839 371.644 281.927C371.454 282.304 371.606 282.765 371.986 282.955C372.094 283.011 372.209 283.037 372.328 283.037C372.618 283.037 372.882 282.877 373.012 282.616C373.797 281.045 375.374 280.069 377.126 280.069Z" fill="white"/>
<path d="M106.522 229.666C120.596 215.575 120.596 192.73 106.522 178.64C92.4477 164.549 69.6287 164.549 55.5543 178.64C41.48 192.73 41.4799 215.575 55.5543 229.666C69.6287 243.756 92.4477 243.756 106.522 229.666Z" fill="#93A8D4"/>
<path opacity="0.2" d="M81.04 168.073V240.235C100.942 240.235 117.08 224.082 117.08 204.154C117.08 184.225 100.942 168.073 81.04 168.073Z" fill="#93A8D4"/>
<path d="M81.04 188.995C80.0991 188.995 79.3329 189.762 79.3329 190.704C79.3329 191.646 80.0991 192.413 81.04 192.413C81.981 192.413 82.7472 191.646 82.7472 190.704C82.7472 189.762 81.981 188.995 81.04 188.995Z" fill="white"/>
<path d="M81.04 180.275C77.0752 180.275 73.5084 182.479 71.7269 186.031C71.5372 186.407 71.6897 186.869 72.0691 187.059C72.2513 187.152 72.4596 187.167 72.653 187.1C72.8464 187.037 73.0026 186.899 73.0956 186.716C74.6168 183.685 77.6592 181.805 81.0437 181.805C84.4246 181.805 87.4707 183.689 88.9919 186.716C89.122 186.977 89.3861 187.137 89.6762 187.137C89.7952 187.137 89.9105 187.111 90.0184 187.055C90.2006 186.962 90.3383 186.806 90.4015 186.612C90.4647 186.419 90.4498 186.21 90.3606 186.028C88.5716 182.479 85.0048 180.275 81.04 180.275Z" fill="white"/>
<path d="M81.0401 186.098C82.7919 186.098 84.3688 187.074 85.1536 188.641C85.2466 188.824 85.4028 188.962 85.5962 189.025C85.7896 189.088 85.9979 189.073 86.1801 188.984C86.3624 188.891 86.5 188.735 86.5632 188.541C86.6265 188.347 86.6116 188.139 86.5223 187.956C85.4735 185.867 83.3721 184.568 81.0401 184.568C78.7081 184.568 76.6067 185.867 75.5578 187.956C75.3681 188.332 75.5206 188.794 75.9 188.984C76.0079 189.04 76.1232 189.066 76.2422 189.066C76.5323 189.066 76.7964 188.906 76.9265 188.645C77.7113 187.074 79.2883 186.098 81.0401 186.098Z" fill="white"/>
<path d="M81.04 227.802C76.6215 227.802 73.0249 224.201 73.0249 219.778C73.0249 216.784 74.7209 214.014 77.369 212.643V199.205C77.369 197.18 79.0167 195.53 81.04 195.53C83.0633 195.53 84.7109 197.18 84.7109 199.205V212.643C87.3591 214.014 89.0551 216.784 89.0551 219.778C89.0551 224.205 85.4585 227.802 81.04 227.802ZM81.04 196.394C79.4928 196.394 78.2319 197.656 78.2319 199.205V213.187L77.9864 213.303C75.4982 214.483 73.8878 217.022 73.8878 219.778C73.8878 223.725 77.0975 226.938 81.04 226.938C84.9824 226.938 88.1922 223.725 88.1922 219.778C88.1922 217.022 86.5855 214.479 84.0935 213.303L83.8481 213.187V199.205C83.8481 197.656 82.5872 196.394 81.04 196.394Z" fill="white"/>
<path d="M82.4719 215.291V206.913C82.4719 206.12 81.8285 205.479 81.04 205.479C80.2478 205.479 79.6081 206.124 79.6081 206.913V215.291C77.7112 215.898 76.3351 217.678 76.3351 219.778C76.3351 222.381 78.4402 224.488 81.04 224.488C83.6398 224.488 85.7449 222.381 85.7449 219.778C85.7449 217.678 84.3688 215.898 82.4719 215.291Z" fill="white"/>
<path d="M351.122 113.337C362.852 101.594 362.852 82.5538 351.122 70.8103C339.392 59.0668 320.373 59.0668 308.643 70.8103C296.913 82.5538 296.913 101.594 308.643 113.337C320.373 125.081 339.392 125.081 351.122 113.337Z" fill="#93A8D4"/>
<path opacity="0.2" d="M329.883 62V122.139C346.471 122.139 359.92 108.675 359.92 92.0676C359.92 75.4606 346.471 62 329.883 62Z" fill="#93A8D4"/>
<path d="M347.226 83.7492H313.384C311.74 83.7492 310.401 85.0897 310.401 86.7355V97.7572C310.401 99.403 311.74 100.743 313.384 100.743H347.226C348.87 100.743 350.209 99.403 350.209 97.7572V86.7355C350.209 85.0897 348.87 83.7492 347.226 83.7492ZM349.618 97.7572C349.618 99.0791 348.543 100.151 347.226 100.151H313.384C312.064 100.151 310.993 99.0753 310.993 97.7572V86.7355C310.993 85.4137 312.068 84.3413 313.384 84.3413H347.226C348.547 84.3413 349.618 85.4174 349.618 86.7355V97.7572Z" fill="white"/>
<path d="M345.062 101.354H315.311V102.657H345.062V101.354Z" fill="white"/>
<path d="M323.523 87.0706C322.85 87.0706 322.277 87.309 321.797 87.7818C321.321 88.2585 321.083 88.8356 321.083 89.5133V95.0837C321.083 95.7577 321.321 96.3311 321.794 96.8077C322.27 97.2843 322.846 97.5189 323.523 97.5189C324.189 97.5189 324.762 97.2843 325.238 96.8114C325.714 96.3385 325.952 95.7651 325.952 95.0837V89.5133C325.952 88.8393 325.718 88.2659 325.245 87.7856C324.777 87.309 324.204 87.0706 323.523 87.0706ZM324.364 95.0577C324.364 95.3034 324.278 95.5119 324.103 95.6832C323.929 95.8582 323.72 95.9439 323.478 95.9439C323.233 95.9439 323.028 95.8582 322.857 95.6832C322.686 95.5082 322.601 95.2997 322.601 95.0577V89.4798C322.601 89.234 322.686 89.0255 322.857 88.8542C323.028 88.6792 323.237 88.5936 323.478 88.5936C323.724 88.5936 323.932 88.6792 324.103 88.8542C324.278 89.0292 324.364 89.2378 324.364 89.4798V95.0577Z" fill="white"/>
<path d="M330.642 93.8289H329.106V95.3593H330.642V93.8289Z" fill="white"/>
<path d="M330.642 89.4947H329.106V91.0437H330.642V89.4947Z" fill="white"/>
<path d="M342.361 87.7856C341.889 87.309 341.316 87.0669 340.636 87.0669C339.962 87.0669 339.39 87.3052 338.91 87.7781C338.434 88.2547 338.196 88.8319 338.196 89.5096V95.08C338.196 95.754 338.434 96.3274 338.906 96.804C339.382 97.2806 339.955 97.5152 340.636 97.5152C341.301 97.5152 341.874 97.2806 342.354 96.8077C342.83 96.3348 343.068 95.7614 343.068 95.08V89.5133C343.068 88.8393 342.834 88.2622 342.361 87.7856ZM341.476 95.0577C341.476 95.3034 341.391 95.5119 341.216 95.6832C341.041 95.8582 340.833 95.9439 340.591 95.9439C340.346 95.9439 340.141 95.8582 339.97 95.6832C339.799 95.5082 339.713 95.2997 339.713 95.0577V89.4798C339.713 89.234 339.799 89.0255 339.97 88.8542C340.141 88.6829 340.349 88.5936 340.591 88.5936C340.837 88.5936 341.045 88.6792 341.216 88.8542C341.391 89.0292 341.476 89.2378 341.476 89.4798V95.0577Z" fill="white"/>
<path d="M318.588 87.0714H317.052V97.4154H318.588V87.0714Z" fill="white"/>
<path d="M335.7 87.0706H334.164V97.4147H335.7V87.0706Z" fill="white"/>
<path d="M329.876 78.7858C329.113 78.7858 328.492 79.4076 328.492 80.1709C328.492 80.9342 329.113 81.5561 329.876 81.5561C330.638 81.5561 331.259 80.9342 331.259 80.1709C331.259 79.4076 330.638 78.7858 329.876 78.7858Z" fill="white"/>
<path d="M329.876 71.7185C326.666 71.7185 323.772 73.5058 322.329 76.3841C322.177 76.6894 322.3 77.0618 322.605 77.2181C322.753 77.2926 322.921 77.3038 323.077 77.2517C323.233 77.1995 323.363 77.0878 323.434 76.9426C324.665 74.4888 327.131 72.9621 329.872 72.9621C332.613 72.9621 335.079 74.4888 336.31 76.9426C336.414 77.1548 336.63 77.2852 336.864 77.2852C336.961 77.2852 337.054 77.2628 337.143 77.2181C337.292 77.1437 337.4 77.0171 337.452 76.8607C337.504 76.7043 337.493 76.5367 337.418 76.3878C335.975 73.5058 333.085 71.7185 329.876 71.7185Z" fill="white"/>
<path d="M329.876 76.4362C331.293 76.4362 332.572 77.2256 333.208 78.4953C333.283 78.6443 333.409 78.7522 333.565 78.8044C333.722 78.8565 333.889 78.8453 334.038 78.7709C334.186 78.6964 334.294 78.5698 334.346 78.4134C334.398 78.257 334.387 78.0895 334.313 77.9405C333.465 76.2463 331.761 75.1963 329.872 75.1963C327.983 75.1963 326.279 76.2463 325.431 77.9405C325.279 78.2458 325.401 78.6182 325.706 78.7746C325.792 78.8193 325.889 78.8416 325.985 78.8416C326.223 78.8416 326.435 78.7113 326.54 78.499C327.179 77.2256 328.455 76.4362 329.876 76.4362Z" fill="white"/>
<path d="M414.446 223.27C427.179 210.523 427.179 189.856 414.446 177.109C401.714 164.363 381.071 164.363 368.339 177.109C355.606 189.856 355.606 210.523 368.339 223.27C381.071 236.017 401.714 236.017 414.446 223.27Z" fill="#93A8D4"/>
<path opacity="0.2" d="M391.397 167.548V232.829C409.402 232.829 424 218.214 424 200.188C424 182.163 409.402 167.548 391.397 167.548Z" fill="#93A8D4"/>
<path d="M397.474 222.939H385.319C384.155 222.939 383.207 221.99 383.207 220.824V192.674C383.207 191.509 384.155 190.559 385.319 190.559H397.474C398.638 190.559 399.587 191.509 399.587 192.674V220.824C399.587 221.99 398.638 222.939 397.474 222.939ZM385.319 191.285C384.553 191.285 383.928 191.911 383.928 192.678V220.828C383.928 221.595 384.553 222.22 385.319 222.22H397.474C398.24 222.22 398.865 221.595 398.865 220.828V192.678C398.865 191.911 398.24 191.285 397.474 191.285H385.319Z" fill="white"/>
<path d="M392.079 202.31C393.698 201.928 394.701 200.303 394.319 198.682C393.936 197.061 392.314 196.057 390.694 196.44C389.075 196.823 388.072 198.447 388.455 200.068C388.837 201.689 390.46 202.693 392.079 202.31Z" fill="white"/>
<path d="M391.397 205.003C388.31 205.003 385.795 202.486 385.795 199.395C385.795 196.305 388.31 193.787 391.397 193.787C394.484 193.787 396.998 196.305 396.998 199.395C396.998 202.489 394.484 205.003 391.397 205.003ZM391.397 194.271C388.574 194.271 386.275 196.573 386.275 199.399C386.275 202.225 388.574 204.526 391.397 204.526C394.22 204.526 396.518 202.225 396.518 199.399C396.518 196.569 394.22 194.271 391.397 194.271Z" fill="white"/>
<path d="M391.397 183.529C390.456 183.529 389.689 184.296 389.689 185.238C389.689 186.18 390.456 186.947 391.397 186.947C392.338 186.947 393.104 186.18 393.104 185.238C393.104 184.296 392.338 183.529 391.397 183.529Z" fill="white"/>
<path d="M391.397 174.809C387.432 174.809 383.865 177.013 382.083 180.565C381.894 180.941 382.046 181.403 382.426 181.593C382.608 181.686 382.816 181.701 383.01 181.634C383.203 181.57 383.359 181.433 383.452 181.25C384.973 178.219 388.016 176.339 391.4 176.339C394.781 176.339 397.827 178.223 399.348 181.25C399.479 181.511 399.743 181.671 400.033 181.671C400.152 181.671 400.267 181.645 400.375 181.589C400.557 181.496 400.695 181.34 400.758 181.146C400.821 180.952 400.806 180.744 400.717 180.561C398.928 177.013 395.361 174.809 391.397 174.809Z" fill="white"/>
<path d="M391.397 180.632C393.148 180.632 394.725 181.608 395.51 183.175C395.603 183.358 395.759 183.496 395.953 183.559C396.146 183.622 396.354 183.607 396.537 183.518C396.719 183.425 396.856 183.268 396.92 183.075C396.983 182.881 396.968 182.673 396.879 182.49C395.83 180.401 393.729 179.102 391.397 179.102C389.065 179.102 386.963 180.401 385.914 182.49C385.725 182.866 385.877 183.328 386.256 183.518C386.364 183.574 386.48 183.6 386.599 183.6C386.889 183.6 387.153 183.44 387.283 183.179C388.068 181.608 389.645 180.632 391.397 180.632Z" fill="white"/>
<path d="M392.46 211.88H390.333V214.01H392.46V211.88Z" fill="white"/>
<path d="M388.391 211.88H386.264V214.01H388.391V211.88Z" fill="white"/>
<path d="M392.46 207.889H390.333V210.018H392.46V207.889Z" fill="white"/>
<path d="M388.391 207.889H386.264V210.018H388.391V207.889Z" fill="white"/>
<path d="M396.526 211.88H394.398V214.01H396.526V211.88Z" fill="white"/>
<path d="M396.526 207.889H394.398V210.018H396.526V207.889Z" fill="white"/>
<path d="M392.46 215.872H390.333V218.002H392.46V215.872Z" fill="white"/>
<path d="M388.391 215.872H386.264V218.002H388.391V215.872Z" fill="white"/>
<path d="M396.526 215.872H394.398V218.002H396.526V215.872Z" fill="white"/>
<path d="M170.374 250.486C164.646 249.369 159.101 253.111 157.992 258.845L147.069 303.349C147.028 303.561 146.998 303.777 146.976 303.993L142.155 352.176C141.531 356.395 142.196 360.706 144.063 364.538L148.37 388.279C148.568 389.355 148.768 390.435 149.099 391.478C149.609 393.098 149.256 394.885 148.121 396.196L92.1644 454.316H190.03L173.256 374.554L173.851 354.034L173.825 308.443C173.825 308.242 173.836 308.041 173.859 307.84L178.85 262.003C179.441 256.54 175.759 251.536 170.374 250.486Z" fill="#EBBB9B"/>
<path d="M287.881 328.475L280.186 341.888C277.798 345.939 278.847 351.137 282.618 353.941C286.654 356.942 292.348 356.134 295.394 352.131L305.031 340.313C308.029 336.373 308.936 328.189 305.109 325.05L303.168 323.46C298.816 319.889 290.745 323.624 287.881 328.475Z" fill="#EBBB9B"/>
<path d="M300.058 281.134L302.078 282.11C307.236 284.597 310.617 292.271 307.039 298.158L297.897 313.827C294.639 319.189 286.513 320.909 282.109 318.094C277.962 315.439 276.757 309.355 279.323 304.016L286.442 287.371C289.209 281.637 295.301 278.844 300.058 281.134Z" fill="#EBBB9B"/>
<path d="M297.001 241.795L300.114 243.381C306.247 246.509 308.084 254.418 303.96 259.932L294.282 272.868C290.931 277.351 284.768 278.632 279.911 275.858C274.934 273.021 272.937 266.855 275.299 261.634L281.863 247.109C284.471 241.345 291.363 238.921 297.001 241.795Z" fill="#EBBB9B"/>
<path d="M132.868 395.228L213.447 439.419L193.679 470H49.214L132.868 395.228Z" fill="white"/>
<path d="M244.328 139.301H242.469V140.79H244.328V139.301Z" fill="white"/>
<path d="M244.328 169.413H242.469V166.55H244.328V169.413ZM244.328 163.69H242.469V160.827H244.328V163.69ZM244.328 157.963H242.469V155.1H244.328V157.963ZM244.328 152.24H242.469V149.377H244.328V152.24ZM244.328 146.513H242.469V143.65H244.328V146.513Z" fill="white"/>
<path d="M244.328 172.277H242.469V173.766H244.328V172.277Z" fill="white"/>
<path d="M327.004 225.371H324.029V223.509H327.004V225.371ZM321.054 225.371H318.078V223.509H321.054V225.371ZM315.103 225.371H312.127V223.509H315.103V225.371ZM309.152 225.371H306.176V223.509H309.152V225.371ZM330.813 224.343H328.953V221.364H330.813V224.343ZM330.813 218.385H328.953V215.406H330.813V218.385ZM330.813 212.428H328.953V209.449H330.813V212.428ZM330.813 206.47H328.953V203.491H330.813V206.47ZM330.813 200.512H328.953V197.533H330.813V200.512ZM330.813 194.554H328.953V191.576H330.813V194.554ZM330.813 188.597H328.953V185.618H330.813V188.597ZM330.813 182.639H328.953V179.66H330.813V182.639ZM330.813 176.681H328.953V173.703H330.813V176.681ZM330.813 170.724H328.953V167.745H330.813V170.724ZM330.813 164.766H328.953V161.787H330.813V164.766ZM330.813 158.808H328.953V155.83H330.813V158.808ZM330.813 152.851H328.953V149.872H330.813V152.851ZM330.813 146.893H328.953V143.914H330.813V146.893ZM330.813 140.935H328.953V137.957H330.813V140.935ZM330.813 134.978H328.953V131.999H330.813V134.978ZM330.813 129.02H328.953V128.175H330.813V129.02Z" fill="white"/>
<path d="M167.889 206.686H164.914V204.824H167.889V206.686ZM161.938 206.686H158.963V204.824H161.938V206.686ZM155.988 206.686H153.012V204.824H155.988V206.686ZM150.037 206.686H147.061V204.824H150.037V206.686ZM144.086 206.686H141.11V204.824H144.086V206.686ZM138.135 206.686H135.159V204.824H138.135V206.686ZM132.184 206.686H129.209V204.824H132.184V206.686ZM126.233 206.686H123.258V204.824H126.233V206.686Z" fill="white"/>
<path d="M338.021 298.326L338.006 296.464H338.021V298.326ZM335.031 298.326H332.055V296.464H335.031V298.326ZM329.08 298.326H326.104V296.464H329.08V298.326ZM323.129 298.326H320.154V296.464H323.129V298.326ZM317.178 298.326H314.203V296.464H317.178V298.326Z" fill="white"/>
<path d="M389.615 247.697H386.64V245.835H389.615V247.697ZM383.664 247.697H380.689V245.835H383.664V247.697ZM377.713 247.697H374.738V245.835H377.713V247.697ZM371.762 247.697H368.787V245.835H371.762V247.697ZM365.812 247.697H362.836V245.835H365.812V247.697ZM359.861 247.697H356.885V245.835H359.861V247.697ZM353.91 247.697H350.934V245.835H353.91V247.697ZM347.959 247.697H344.984V245.835H347.959V247.697ZM342.008 247.697H339.033V245.835H342.008V247.697ZM336.057 247.697H333.082V245.835H336.057V247.697ZM330.106 247.697H327.131V245.835H330.106V247.697ZM324.155 247.697H321.18V245.835H324.155V247.697ZM318.205 247.697H315.229V245.835H318.205V247.697ZM312.254 247.697H311.383V245.835H312.254V247.697ZM392.326 245.571H390.467V242.592H392.326V245.571ZM392.326 239.613H390.467V236.634H392.326V239.613Z" fill="white"/>
<path d="M187.881 173.766H186.021V173.222H187.881V173.766ZM187.881 170.24H186.021V167.261H187.881V170.24ZM187.881 164.282H186.021V161.303H187.881V164.282ZM187.881 158.324H186.021V155.346H187.881V158.324ZM187.881 152.367H186.021V149.388H187.881V152.367ZM187.881 146.409H186.021V143.43H187.881V146.409ZM187.881 140.451H186.021V137.473H187.881V140.451ZM187.881 134.494H186.021V131.515H187.881V134.494ZM187.881 128.536H186.021V125.557H187.881V128.536ZM187.881 122.578H186.021V119.6H187.881V122.578ZM187.881 116.621H186.021V113.642H187.881V116.621ZM186.951 110.965H184.604V109.103H187.881V110.663H186.951V110.965ZM181.628 110.965H178.653V109.103H181.628V110.965ZM175.678 110.965H172.702V109.103H175.678V110.965ZM169.727 110.965H166.751V109.103H169.727V110.965ZM163.776 110.965H160.8V109.103H163.776V110.965ZM157.825 110.965H154.849V109.103H157.825V110.965Z" fill="white"/>
<path d="M101.199 287.539H99.339V284.56H101.199V287.539ZM101.199 281.581H99.339V278.602H101.199V281.581ZM101.199 275.624H99.339V272.645H101.199V275.624ZM101.199 269.666H99.339V266.687H101.199V269.666ZM101.199 263.708H99.339V260.729H101.199V263.708ZM101.199 257.751H99.339V254.772H101.199V257.751ZM101.199 251.793H99.339V248.814H101.199V251.793ZM168.856 247.596H166.562V245.735H168.856V247.596ZM163.582 247.596H160.607V245.735H163.582V247.596ZM157.632 247.596H154.656V245.735H157.632V247.596ZM151.681 247.596H148.705V245.735H151.681V247.596ZM145.73 247.596H142.754V245.735H145.73V247.596ZM139.779 247.596H136.803V245.735H139.779V247.596ZM133.828 247.596H130.853V245.735H133.828V247.596ZM127.877 247.596H124.902V245.735H127.877V247.596ZM121.926 247.596H118.951V245.735H121.926V247.596ZM115.975 247.596H113V245.735H115.975V247.596ZM110.025 247.596H107.049V245.735H110.025V247.596ZM104.074 247.596H101.098V245.735H104.074V247.596Z" fill="white"/>
</g>
<defs>
<clipPath id="clip0">
<rect width="379" height="408" fill="white" transform="translate(45 62)"/>
</clipPath>
</defs>
</svg>
