<svg width="86" height="60" viewBox="0 0 86 60" fill="none" xmlns="http://www.w3.org/2000/svg">
<path fill-rule="evenodd" clip-rule="evenodd" d="M35.6719 6.54376C38.4357 3.6647 42.286 1.87689 46.5422 1.87689C52.2 1.87689 57.1378 5.03251 59.7666 9.7172C62.1186 8.66657 64.6662 8.12505 67.2422 8.12814C77.4478 8.12814 85.7203 16.4738 85.7203 26.7703C85.7203 37.0669 77.4478 45.4125 67.2422 45.4125C65.9944 45.4125 64.7775 45.2878 63.601 45.0506C61.2863 49.1784 56.8725 51.9684 51.8091 51.9684C49.6894 51.9684 47.6841 51.4809 45.9 50.6081C43.5525 56.13 38.0841 60 31.7119 60C25.0763 60 19.4194 55.8 17.2491 49.9116C16.2821 50.1156 15.2965 50.2184 14.3082 50.2181C6.40598 50.2191 3.97413e-05 43.7466 3.97413e-05 35.7619C-0.00588859 33.2315 0.651541 30.7437 1.90679 28.5465C3.16204 26.3494 4.97126 24.5197 7.1541 23.2397C6.24852 21.153 5.78258 18.9022 5.78535 16.6275C5.78535 7.44376 13.2394 1.1315e-05 22.4344 1.1315e-05C24.9959 -0.00297723 27.5235 0.586081 29.8197 1.7212C32.116 2.85632 34.1188 4.50679 35.6719 6.54376Z" fill="#00A1E0"/>
</svg>
